<svg id="svg" version="1.1" xmlns="http://www.w3.org/2000/svg" xmlns:xlink="http://www.w3.org/1999/xlink" width="400" height="400" viewBox="0, 0, 400,400"><g id="svgg"><path id="path0" d="M79.027 156.219 C 72.797 160.593,68.811 167.505,68.725 174.080 C 68.705 175.621,68.634 175.811,68.345 175.091 C 67.560 173.138,67.032 167.683,67.450 165.854 C 68.021 163.360,67.550 163.605,65.299 166.971 C 59.221 176.058,60.213 184.393,67.887 188.718 C 71.164 190.565,75.463 193.570,76.753 194.917 C 78.143 196.368,77.828 196.409,75.686 195.057 C 72.644 193.137,62.709 189.425,59.180 188.891 C 58.320 188.761,55.859 188.234,53.711 187.719 C 51.563 187.205,49.233 186.668,48.535 186.525 C 47.837 186.383,47.266 186.094,47.266 185.883 C 47.266 185.673,47.122 185.590,46.946 185.698 C 46.014 186.274,39.019 181.848,37.714 179.857 C 36.753 178.390,36.427 178.716,36.612 180.957 C 37.131 187.268,41.373 194.838,45.942 197.608 C 46.871 198.172,47.640 198.896,47.650 199.219 C 47.665 199.691,47.732 199.703,48.000 199.281 C 48.270 198.856,48.614 198.900,49.849 199.521 C 50.684 199.941,53.652 201.205,56.445 202.331 C 69.726 207.683,74.950 212.629,75.333 220.213 C 75.471 222.952,74.983 224.059,74.420 222.285 C 72.676 216.788,66.135 211.056,58.008 207.900 C 49.598 204.634,43.886 201.472,41.694 198.866 C 40.286 197.193,40.337 198.086,41.839 201.398 C 43.227 204.459,45.280 207.794,46.962 209.721 C 47.878 210.771,48.008 211.121,47.593 211.418 C 47.197 211.701,47.233 211.740,47.740 211.578 C 48.172 211.439,49.003 211.908,50.084 212.898 C 51.004 213.742,51.903 214.437,52.081 214.443 C 52.259 214.448,53.665 215.056,55.206 215.793 C 56.747 216.530,59.661 217.595,61.682 218.160 C 68.818 220.154,73.447 224.187,67.090 222.872 C 64.261 222.286,64.175 222.694,66.490 225.694 C 73.185 234.373,87.806 238.948,98.535 235.723 C 101.333 234.881,101.329 234.732,98.483 233.895 C 91.286 231.781,86.256 223.055,87.481 214.809 C 89.468 201.438,88.881 198.618,82.573 191.211 C 72.060 178.866,71.484 166.418,80.957 156.288 C 83.472 153.598,82.792 153.574,79.027 156.219 " stroke="none" fill="#ec192c" fill-rule="evenodd"></path><path id="path1" d="M91.783 144.583 C 89.734 144.740,86.925 145.129,85.542 145.449 C 84.158 145.769,82.890 145.946,82.724 145.844 C 82.558 145.741,82.422 145.807,82.422 145.990 C 82.422 146.174,81.487 146.611,80.344 146.963 C 79.202 147.315,76.873 148.270,75.169 149.085 C 73.465 149.899,71.938 150.527,71.777 150.478 C 71.616 150.430,71.484 150.541,71.484 150.724 C 71.484 150.907,70.298 151.848,68.848 152.814 C 58.728 159.556,51.403 170.905,49.167 183.310 C 48.582 186.551,48.472 186.447,53.320 187.222 C 59.493 188.210,72.180 192.595,75.740 194.972 L 77.539 196.173 76.172 194.741 C 74.895 193.403,72.584 191.776,66.828 188.162 C 59.539 183.585,59.455 173.408,66.635 164.875 C 67.785 163.508,68.610 163.255,67.961 164.468 C 67.365 165.582,67.387 170.078,68.003 172.860 L 68.520 175.195 68.762 172.656 C 69.413 165.819,73.940 158.902,80.238 155.122 C 83.148 153.375,83.343 153.772,80.914 156.497 C 72.195 166.279,72.417 178.957,81.493 189.669 C 88.569 198.021,89.696 201.755,88.091 211.523 C 86.630 220.416,88.037 225.614,93.215 230.458 C 95.472 232.570,98.876 234.375,100.601 234.375 C 103.320 234.375,98.647 236.120,94.141 236.787 C 83.845 238.311,69.156 231.789,65.065 223.878 C 64.207 222.219,64.371 222.099,66.789 222.618 C 73.064 223.964,68.497 220.214,61.432 218.219 C 59.449 217.659,56.680 216.682,55.280 216.047 C 53.880 215.412,52.734 214.977,52.734 215.079 C 52.734 217.053,63.974 232.031,65.455 232.031 C 65.620 232.031,71.454 236.262,72.754 237.324 C 73.130 237.632,73.438 237.814,73.438 237.730 C 73.438 237.646,75.151 238.350,77.246 239.295 C 79.341 240.239,81.626 241.121,82.324 241.253 C 83.022 241.385,83.594 241.660,83.594 241.863 C 83.594 242.067,83.731 242.149,83.898 242.046 C 84.065 241.942,85.340 242.126,86.730 242.455 C 89.449 243.098,102.839 243.482,103.906 242.948 C 104.229 242.787,106.363 242.217,108.649 241.681 C 119.688 239.094,129.935 231.888,136.811 221.875 C 137.917 220.264,139.008 218.816,139.236 218.658 C 139.463 218.500,139.530 218.369,139.386 218.365 C 139.242 218.362,139.794 216.997,140.614 215.332 C 141.433 213.667,142.425 211.250,142.818 209.961 C 143.212 208.672,143.626 207.529,143.739 207.422 C 143.853 207.314,143.967 206.963,143.993 206.641 C 144.019 206.318,144.350 204.230,144.728 202.001 C 147.791 183.940,140.249 165.216,125.427 154.078 C 122.191 151.647,114.245 147.266,113.071 147.266 C 112.757 147.266,112.500 147.079,112.500 146.852 C 112.500 146.624,112.346 146.533,112.158 146.650 C 111.870 146.827,109.860 146.307,107.422 145.424 C 107.100 145.308,106.484 145.176,106.055 145.132 C 105.625 145.089,104.131 144.926,102.734 144.770 C 98.748 144.326,95.807 144.276,91.783 144.583 M106.984 152.061 C 108.999 152.603,110.757 153.196,110.890 153.379 C 111.024 153.561,111.484 153.771,111.914 153.844 C 115.995 154.541,130.902 166.320,129.852 168.018 C 129.736 168.206,129.807 168.359,130.009 168.359 C 130.945 168.359,136.238 178.104,135.740 178.910 C 135.631 179.086,135.763 179.304,136.033 179.395 C 136.416 179.524,136.404 179.705,135.980 180.219 C 135.509 180.789,135.517 180.846,136.040 180.646 C 137.289 180.166,138.917 190.638,138.500 196.468 C 138.059 202.632,135.746 211.464,134.156 213.054 C 133.867 213.342,133.714 213.662,133.817 213.764 C 134.837 214.785,125.268 225.844,120.313 229.371 C 115.457 232.828,107.019 236.553,110.735 233.599 C 111.542 232.958,112.384 232.546,112.607 232.683 C 112.850 232.834,112.893 232.741,112.713 232.450 C 112.535 232.162,112.800 231.548,113.371 230.925 C 117.252 226.695,119.190 219.939,118.304 213.724 C 118.101 212.299,117.899 210.781,117.854 210.352 C 117.810 209.922,117.686 209.482,117.578 209.375 C 117.471 209.268,116.687 207.773,115.837 206.055 C 112.991 200.299,106.805 195.275,100.660 193.728 C 99.652 193.474,98.828 193.117,98.828 192.935 C 98.828 192.752,98.581 192.698,98.279 192.813 C 94.940 194.095,84.441 186.813,81.667 181.291 C 79.456 176.892,78.926 165.234,80.936 165.234 C 81.134 165.234,81.189 165.061,81.058 164.850 C 80.704 164.276,83.170 159.564,84.696 157.898 C 85.428 157.099,86.002 156.396,85.972 156.336 C 85.787 155.965,90.028 152.816,91.989 151.868 C 95.046 150.390,101.058 150.467,106.984 152.061 M213.745 162.884 L 211.669 163.086 210.321 166.191 C 209.580 167.899,208.844 169.393,208.686 169.512 C 208.528 169.630,208.340 169.990,208.269 170.313 C 208.198 170.635,207.283 172.827,206.235 175.185 L 204.330 179.471 203.715 177.999 C 203.377 177.190,203.221 176.333,203.368 176.094 C 203.516 175.856,203.464 175.767,203.254 175.897 C 203.043 176.027,201.533 173.198,199.897 169.610 L 196.923 163.086 192.407 162.976 C 189.923 162.915,187.891 162.943,187.891 163.038 C 187.891 163.133,189.114 165.577,190.609 168.470 C 192.105 171.362,193.218 173.839,193.083 173.974 C 192.949 174.109,193.015 174.219,193.232 174.219 C 193.877 174.219,194.582 176.083,194.023 176.311 C 193.727 176.431,193.770 176.512,194.141 176.532 C 194.488 176.551,195.801 178.696,197.363 181.796 L 200.000 187.028 200.000 194.100 L 200.000 201.172 204.102 201.172 L 208.203 201.172 208.203 194.133 L 208.203 187.094 210.010 183.488 C 211.004 181.505,211.985 179.775,212.192 179.644 C 212.398 179.512,212.526 179.337,212.476 179.253 C 212.258 178.889,212.984 177.344,213.373 177.344 C 213.609 177.344,213.689 177.231,213.551 177.093 C 213.413 176.954,214.877 173.760,216.805 169.995 C 218.733 166.229,220.255 163.094,220.188 163.027 C 219.943 162.781,215.759 162.689,213.745 162.884 M226.852 162.813 L 224.602 162.930 224.703 182.140 L 224.805 201.350 227.485 201.249 C 229.219 201.184,230.383 201.325,230.782 201.648 C 231.257 202.033,231.332 202.035,231.107 201.660 C 230.910 201.333,231.078 201.172,231.618 201.172 C 232.403 201.172,232.422 200.986,232.422 193.392 L 232.422 185.613 239.258 185.565 L 246.094 185.518 246.094 193.345 L 246.094 201.172 247.168 201.210 C 249.068 201.276,254.057 201.152,254.174 201.034 C 254.402 200.807,254.428 197.917,254.363 180.601 L 254.297 162.960 252.051 162.828 C 250.815 162.755,248.970 162.749,247.949 162.814 L 246.094 162.933 246.094 170.544 L 246.094 178.154 239.258 178.080 L 232.422 178.007 232.422 170.449 C 232.422 164.681,232.306 162.883,231.934 162.857 C 229.940 162.720,228.816 162.710,226.852 162.813 M266.693 162.807 L 262.877 162.919 262.898 182.472 C 262.916 199.351,262.995 201.962,263.475 201.564 C 263.781 201.310,264.698 201.142,265.512 201.191 C 266.326 201.241,267.915 201.257,269.043 201.226 L 271.094 201.172 271.094 198.125 C 271.094 196.228,271.278 194.880,271.582 194.552 C 271.851 194.263,271.876 194.134,271.638 194.267 C 271.007 194.619,270.974 185.865,271.605 185.464 C 271.897 185.279,271.913 185.166,271.649 185.162 C 271.359 185.158,271.206 181.717,271.161 174.141 C 271.124 168.082,270.962 163.029,270.801 162.910 C 270.640 162.792,268.791 162.746,266.693 162.807 M339.551 162.805 L 334.766 162.915 334.758 167.102 C 334.754 169.405,334.743 175.596,334.733 180.859 C 334.723 186.123,334.726 192.847,334.740 195.801 L 334.766 201.172 335.742 201.172 C 336.279 201.172,336.721 201.392,336.725 201.660 C 336.729 202.002,336.817 202.018,337.018 201.715 C 337.176 201.476,338.527 201.250,340.022 201.211 C 343.395 201.124,343.028 202.032,343.007 193.826 L 342.989 186.797 344.879 186.822 L 346.770 186.846 348.020 189.380 C 349.014 191.397,349.165 191.990,348.756 192.283 C 348.361 192.567,348.384 192.607,348.856 192.459 C 349.315 192.314,350.026 193.384,351.685 196.719 L 353.902 201.172 356.931 201.211 C 360.230 201.255,362.629 201.163,362.811 200.987 C 362.874 200.926,362.421 200.020,361.804 198.973 C 361.187 197.927,359.571 194.961,358.212 192.383 C 356.853 189.805,355.310 187.112,354.784 186.400 C 354.258 185.688,353.889 185.067,353.964 185.021 C 354.040 184.975,354.722 184.657,355.480 184.313 C 359.273 182.595,360.987 179.870,361.247 175.147 C 361.783 165.384,356.563 162.415,339.551 162.805 M159.375 182.031 L 159.375 201.172 161.230 201.201 C 166.403 201.283,175.010 201.190,176.563 201.036 C 178.293 200.863,178.673 200.759,181.109 199.785 C 188.461 196.846,188.707 185.689,181.492 182.414 L 179.116 181.336 180.476 180.759 C 182.183 180.034,183.704 178.619,184.611 176.909 C 185.540 175.160,185.635 169.169,184.747 168.359 C 184.629 168.252,184.159 167.628,183.701 166.972 C 181.565 163.909,177.130 162.891,165.928 162.891 L 159.375 162.891 159.375 182.031 M283.547 163.574 C 283.522 163.950,283.538 164.434,283.582 164.648 C 283.783 165.624,283.775 171.875,283.573 171.875 C 283.448 171.875,283.419 172.534,283.509 173.340 C 284.019 177.919,283.722 182.159,282.910 181.877 C 282.272 181.655,282.273 181.675,282.921 182.179 C 283.515 182.641,283.617 183.373,283.624 187.184 C 283.635 194.080,282.908 195.087,278.079 194.864 C 275.025 194.722,274.639 194.995,274.683 197.266 C 274.700 198.160,274.728 198.144,275.019 197.070 C 275.254 196.203,275.318 196.588,275.266 198.553 C 275.181 201.759,275.179 201.758,281.086 201.758 C 291.450 201.758,292.246 199.015,291.820 164.746 L 291.797 162.891 287.695 162.891 C 284.067 162.891,283.588 162.970,283.547 163.574 M306.817 167.371 C 305.775 170.412,305.083 171.876,304.688 171.880 C 304.253 171.885,304.227 171.966,304.585 172.194 C 304.977 172.443,297.979 194.239,295.500 200.488 C 295.252 201.114,295.589 201.172,299.489 201.172 L 303.750 201.172 305.005 197.070 L 306.261 192.969 312.408 192.975 C 315.789 192.978,318.751 193.110,318.990 193.268 C 319.615 193.679,320.068 195.313,319.558 195.313 C 319.328 195.313,319.141 195.483,319.141 195.691 C 319.141 195.899,319.374 195.980,319.660 195.870 C 320.019 195.732,320.401 196.428,320.898 198.128 C 321.851 201.388,321.643 201.262,326.192 201.318 C 330.646 201.373,330.840 201.254,329.910 199.028 C 329.575 198.228,329.390 197.431,329.497 197.257 C 329.605 197.084,329.550 196.883,329.376 196.811 C 329.043 196.673,320.225 170.962,320.157 169.931 C 320.135 169.604,320.012 169.248,319.883 169.141 C 319.754 169.033,319.212 167.627,318.679 166.016 L 317.710 163.086 313.035 162.977 L 308.361 162.868 306.817 167.371 M96.289 166.169 C 93.428 167.423,91.395 171.080,92.000 173.886 C 93.810 182.290,105.859 181.221,105.859 172.656 C 105.859 167.601,100.818 164.185,96.289 166.169 M175.006 170.255 C 176.545 171.073,177.707 173.556,177.153 174.842 C 176.977 175.251,176.816 175.762,176.794 175.977 C 176.590 177.985,174.549 178.909,170.410 178.865 L 167.578 178.835 167.578 174.183 L 167.578 169.531 170.612 169.531 C 172.814 169.531,174.018 169.729,175.006 170.255 M349.752 170.070 C 351.467 170.786,352.843 172.561,352.560 173.690 C 352.439 174.169,352.504 174.663,352.704 174.786 C 353.087 175.023,352.735 176.665,352.010 178.020 C 351.291 179.362,349.172 180.078,345.922 180.078 L 342.939 180.078 342.992 174.805 L 343.045 169.531 345.754 169.531 C 347.244 169.531,349.043 169.774,349.752 170.070 M316.116 181.912 C 317.763 187.146,318.086 186.719,312.480 186.719 L 307.904 186.719 309.106 182.910 C 309.767 180.815,310.451 179.043,310.625 178.971 C 310.800 178.898,310.856 178.700,310.751 178.530 C 310.646 178.360,310.809 177.365,311.112 176.318 C 311.415 175.271,311.880 173.623,312.144 172.656 L 312.624 170.898 313.682 174.219 C 314.264 176.045,315.359 179.507,316.116 181.912 M195.161 180.008 C 195.034 180.213,195.178 180.586,195.481 180.837 C 195.915 181.197,196.013 181.168,195.943 180.697 C 195.825 179.891,195.442 179.553,195.161 180.008 M176.791 186.424 C 180.550 190.526,177.617 194.811,170.996 194.890 L 167.578 194.932 167.578 189.874 L 167.578 184.815 171.515 184.888 L 175.451 184.961 176.791 186.424 M233.057 186.249 C 232.951 186.421,233.026 186.816,233.223 187.128 C 233.525 187.605,233.583 187.591,233.588 187.044 C 233.591 186.686,233.813 186.305,234.082 186.196 C 234.383 186.075,234.316 185.987,233.910 185.968 C 233.546 185.951,233.163 186.078,233.057 186.249 M245.020 191.992 C 245.025 192.852,245.105 193.157,245.198 192.671 C 245.292 192.185,245.288 191.482,245.190 191.109 C 245.092 190.735,245.016 191.133,245.020 191.992 M48.257 199.679 C 48.411 200.178,48.869 201.481,49.274 202.575 L 50.010 204.565 55.767 206.831 C 65.453 210.645,68.523 212.794,72.145 218.298 C 73.393 220.195,74.639 222.083,74.914 222.494 C 75.986 224.098,75.208 217.816,74.039 215.426 C 71.420 210.074,67.249 206.939,57.300 202.848 C 53.427 201.255,49.745 199.686,49.117 199.362 C 47.998 198.783,47.982 198.789,48.257 199.679 M100.091 210.724 C 103.363 212.091,104.572 214.800,103.967 219.412 C 103.885 220.043,101.556 222.480,100.586 222.949 C 96.260 225.044,91.406 221.787,91.406 216.790 C 91.406 215.114,92.316 212.891,93.002 212.891 C 93.224 212.891,93.309 212.734,93.190 212.543 C 92.334 211.157,97.727 209.736,100.091 210.724 M257.683 212.793 C 257.587 212.954,257.479 216.521,257.444 220.720 L 257.381 228.355 261.601 228.338 L 265.820 228.320 265.936 227.148 L 266.052 225.977 262.903 226.104 L 259.755 226.232 259.858 224.932 C 259.914 224.218,260.137 223.504,260.352 223.346 C 260.605 223.160,260.593 223.057,260.318 223.053 C 260.036 223.049,259.905 221.565,259.927 218.631 C 259.958 214.552,259.904 214.211,259.215 214.158 C 258.412 214.097,257.743 213.320,258.057 212.812 C 258.163 212.640,258.161 212.500,258.054 212.500 C 257.946 212.500,257.780 212.632,257.683 212.793 M243.616 213.546 C 243.470 213.691,242.523 214.087,241.511 214.425 C 234.534 216.755,236.295 228.480,243.627 228.509 C 246.314 228.520,249.609 226.641,249.609 225.099 C 249.609 224.804,249.748 224.649,249.918 224.754 C 250.502 225.115,250.467 219.298,249.878 217.918 C 249.028 215.929,247.212 214.424,245.364 214.176 C 244.485 214.058,243.861 213.809,243.976 213.622 C 244.226 213.218,243.992 213.169,243.616 213.546 M175.025 214.193 C 174.802 214.416,174.419 215.621,174.173 216.870 C 173.928 218.119,173.563 219.141,173.364 219.141 C 173.164 219.141,173.109 219.316,173.242 219.531 C 173.375 219.746,173.348 220.141,173.182 220.410 C 173.016 220.678,172.860 221.161,172.835 221.484 C 172.810 221.806,172.760 222.466,172.723 222.949 C 172.686 223.433,172.524 223.827,172.363 223.825 C 171.965 223.821,170.255 217.596,170.530 217.151 C 170.651 216.956,170.563 216.797,170.336 216.797 C 170.108 216.797,169.922 216.460,169.922 216.048 C 169.922 213.532,167.469 213.120,166.827 215.527 C 166.612 216.333,165.997 218.641,165.459 220.656 C 164.563 224.017,163.809 225.903,164.112 224.023 C 164.182 223.594,164.135 223.066,164.009 222.852 C 163.882 222.637,163.476 221.143,163.105 219.531 C 161.869 214.161,161.819 214.063,160.359 214.063 L 159.061 214.063 159.604 215.866 C 159.902 216.858,160.059 217.809,159.953 217.981 C 159.847 218.152,159.904 218.352,160.080 218.424 C 160.456 218.578,162.500 226.051,162.500 227.271 C 162.500 227.840,162.814 228.189,163.476 228.355 C 164.805 228.689,165.625 228.308,165.625 227.356 C 165.625 226.920,165.763 226.563,165.932 226.563 C 166.101 226.563,166.253 226.255,166.271 225.879 C 166.381 223.548,168.200 217.774,168.504 218.792 C 168.807 219.808,170.271 225.188,170.705 226.879 C 171.108 228.450,171.217 228.554,172.344 228.441 L 173.552 228.320 175.437 221.289 C 176.474 217.422,177.327 214.234,177.333 214.206 C 177.397 213.901,175.329 213.890,175.025 214.193 M183.202 217.253 C 183.203 219.596,183.053 220.699,182.715 220.835 C 182.324 220.993,182.324 221.038,182.715 221.063 C 183.069 221.085,183.203 222.119,183.203 224.835 L 183.203 228.577 187.598 228.433 L 191.992 228.289 192.116 227.231 L 192.239 226.172 189.088 226.172 L 185.938 226.172 185.938 224.219 L 185.938 222.266 188.477 222.266 C 190.924 222.266,191.016 222.231,191.016 221.289 C 191.016 220.348,190.924 220.313,188.477 220.313 L 185.938 220.313 185.938 218.376 L 185.938 216.439 188.965 216.325 C 191.927 216.213,191.995 216.188,192.113 215.161 L 192.235 214.111 187.718 213.989 L 183.202 213.867 183.202 217.253 M271.582 213.972 C 271.086 214.054,270.696 214.403,270.686 214.773 C 270.380 226.483,271.228 228.510,276.428 228.514 C 280.804 228.517,281.747 226.771,281.805 218.555 L 281.836 214.258 280.566 214.135 L 279.297 214.013 279.288 219.214 C 279.278 225.329,278.914 226.216,276.386 226.287 C 273.699 226.364,273.448 225.592,273.284 216.720 C 273.238 214.282,272.911 213.753,271.582 213.972 M287.891 215.137 C 287.891 216.397,287.904 216.406,289.814 216.406 L 291.738 216.406 291.774 222.118 C 291.815 228.549,291.804 228.503,293.268 228.347 L 294.336 228.233 294.345 222.417 L 294.354 216.602 296.591 216.484 C 298.681 216.375,298.828 216.303,298.828 215.398 C 298.828 214.101,298.534 214.030,292.824 213.942 L 287.890 213.867 287.891 215.137 M304.531 213.999 C 304.325 214.333,304.203 219.483,304.263 225.318 L 304.297 228.565 305.566 228.443 L 306.836 228.320 306.942 221.239 C 307.048 214.165,307.048 214.158,306.161 213.920 C 304.978 213.603,304.770 213.613,304.531 213.999 M333.902 221.096 L 334.016 228.352 335.172 228.440 L 336.328 228.528 336.335 223.151 L 336.341 217.773 337.092 218.945 C 337.506 219.590,337.839 220.273,337.834 220.464 C 337.828 220.655,338.002 220.921,338.219 221.056 C 338.437 221.190,339.731 222.880,341.094 224.810 C 342.826 227.262,343.850 228.360,344.488 228.451 C 346.219 228.698,346.251 228.477,346.129 217.260 L 346.094 214.013 344.853 214.135 L 343.612 214.258 343.618 219.323 C 343.622 223.133,343.518 224.218,343.199 223.702 C 339.584 217.861,336.602 214.247,335.233 214.049 L 333.789 213.840 333.902 221.096 M198.438 221.303 L 198.438 228.544 202.051 228.281 C 208.234 227.832,210.548 224.862,207.162 221.723 L 206.182 220.814 207.095 220.075 C 207.702 219.584,207.999 218.943,207.981 218.164 C 207.909 214.976,206.481 214.063,201.575 214.063 L 198.438 214.063 198.438 221.303 M224.299 214.588 C 222.020 215.853,221.616 218.569,223.421 220.490 C 223.864 220.961,224.098 221.475,223.941 221.632 C 223.785 221.788,223.924 221.814,224.251 221.688 C 224.931 221.427,227.596 222.437,228.613 223.342 C 230.848 225.327,227.150 227.493,224.163 225.948 C 222.811 225.249,222.851 225.232,222.518 226.623 C 221.894 229.228,229.842 229.193,231.238 226.584 C 232.664 223.920,231.249 221.282,227.737 220.054 C 225.104 219.134,224.184 217.915,225.241 216.746 C 225.978 215.932,228.386 215.848,230.124 216.576 C 230.906 216.904,231.431 215.337,230.795 214.571 C 230.243 213.906,225.506 213.918,224.299 214.588 M316.757 214.945 C 310.875 218.853,313.496 228.238,320.508 228.373 L 323.242 228.426 324.885 226.712 C 330.704 220.638,323.621 210.383,316.757 214.945 M353.868 215.276 C 351.567 217.739,352.975 220.861,357.020 222.266 C 358.970 222.943,360.724 224.945,358.981 224.504 C 358.092 224.279,358.069 224.303,358.714 224.786 C 359.386 225.289,359.377 225.345,358.529 225.939 C 357.606 226.585,356.250 226.782,356.250 226.270 C 356.250 226.108,355.854 225.953,355.371 225.924 C 354.888 225.895,354.097 225.743,353.613 225.585 C 352.033 225.071,352.378 227.534,353.965 228.087 C 355.688 228.688,358.430 228.621,359.735 227.945 C 360.342 227.632,360.963 227.500,361.116 227.652 C 361.268 227.805,361.341 227.754,361.278 227.539 C 361.214 227.324,361.383 226.750,361.653 226.262 C 361.924 225.775,362.103 224.577,362.053 223.601 L 361.961 221.826 358.715 220.277 C 353.526 217.801,355.383 214.240,360.645 216.577 C 361.211 216.828,361.328 216.680,361.328 215.712 C 361.328 213.550,355.783 213.226,353.868 215.276 M204.601 216.624 C 206.525 217.972,205.424 219.891,202.539 220.216 L 200.781 220.414 200.781 218.215 L 200.781 216.016 202.257 216.016 C 203.068 216.016,204.123 216.289,204.601 216.624 M246.056 217.021 C 249.489 219.909,247.812 226.419,243.663 226.311 C 238.233 226.168,238.572 216.199,244.013 216.040 C 244.480 216.027,245.399 216.468,246.056 217.021 M322.810 217.144 C 323.911 218.294,324.960 221.563,324.298 221.784 C 324.102 221.849,324.018 222.302,324.111 222.790 C 324.594 225.316,320.089 227.215,317.914 225.404 C 317.407 224.981,317.137 224.630,317.313 224.622 C 317.490 224.615,317.358 224.333,317.020 223.996 C 316.598 223.573,316.406 222.647,316.406 221.027 C 316.406 216.732,320.208 214.428,322.810 217.144 M205.302 222.680 C 206.954 224.051,205.357 226.172,202.674 226.172 L 200.781 226.172 200.781 224.015 L 200.781 221.857 202.763 222.037 C 203.853 222.136,204.996 222.426,205.302 222.680 " stroke="none" fill="#0e1111" fill-rule="evenodd"></path><path id="path2" d="M90.918 144.416 C 91.401 144.509,92.192 144.509,92.676 144.416 C 93.159 144.323,92.764 144.247,91.797 144.247 C 90.830 144.247,90.435 144.323,90.918 144.416 M99.902 144.416 C 100.386 144.509,101.177 144.509,101.660 144.416 C 102.144 144.323,101.748 144.247,100.781 144.247 C 99.814 144.247,99.419 144.323,99.902 144.416 M95.801 151.068 C 96.821 151.149,98.491 151.149,99.512 151.068 C 100.532 150.988,99.697 150.922,97.656 150.922 C 95.615 150.922,94.780 150.988,95.801 151.068 M62.098 158.105 L 59.570 160.742 62.207 158.214 C 63.657 156.824,64.844 155.638,64.844 155.578 C 64.844 155.290,64.446 155.656,62.098 158.105 M130.664 158.594 C 132.373 160.313,133.859 161.719,133.966 161.719 C 134.073 161.719,132.763 160.313,131.055 158.594 C 129.346 156.875,127.860 155.469,127.753 155.469 C 127.645 155.469,128.955 156.875,130.664 158.594 M159.166 182.031 C 159.166 192.881,159.216 197.319,159.277 191.895 C 159.338 186.470,159.338 177.593,159.277 172.168 C 159.216 166.743,159.166 171.182,159.166 182.031 M224.398 162.988 C 224.295 163.257,224.257 172.090,224.313 182.617 L 224.414 201.758 224.610 182.129 C 224.717 171.333,224.755 162.500,224.695 162.500 C 224.634 162.500,224.501 162.720,224.398 162.988 M231.925 162.817 C 232.270 163.036,232.437 165.248,232.520 170.721 L 232.635 178.320 232.724 170.410 C 232.806 163.101,232.761 162.500,232.129 162.506 C 231.651 162.510,231.590 162.604,231.925 162.817 M245.877 163.000 C 245.772 163.275,245.737 166.835,245.801 170.910 L 245.917 178.320 246.005 170.638 C 246.071 164.926,246.219 162.905,246.582 162.759 C 246.964 162.604,246.962 162.555,246.570 162.531 C 246.294 162.514,245.983 162.725,245.877 163.000 M254.293 165.740 L 254.485 168.945 254.605 166.053 C 254.670 164.463,254.584 163.021,254.413 162.848 C 254.242 162.676,254.188 163.978,254.293 165.740 M262.679 162.988 C 262.576 163.257,262.538 171.914,262.594 182.227 L 262.696 200.977 262.891 181.738 C 262.998 171.157,263.036 162.500,262.976 162.500 C 262.916 162.500,262.782 162.720,262.679 162.988 M291.091 162.742 C 291.511 162.867,291.813 163.465,291.919 164.380 L 292.085 165.820 292.039 164.261 C 292.001 163.006,291.840 162.686,291.211 162.623 C 290.644 162.566,290.611 162.599,291.091 162.742 M125.514 163.770 C 125.490 164.253,125.558 164.418,125.666 164.136 C 125.819 163.738,126.025 163.772,126.594 164.286 C 126.996 164.650,127.249 165.071,127.156 165.221 C 127.064 165.372,127.250 165.495,127.570 165.495 C 127.950 165.495,127.714 165.042,126.890 164.193 C 126.196 163.477,125.612 162.891,125.592 162.891 C 125.573 162.891,125.537 163.286,125.514 163.770 M97.949 165.510 C 98.433 165.603,99.224 165.603,99.707 165.510 C 100.190 165.417,99.795 165.341,98.828 165.341 C 97.861 165.341,97.466 165.417,97.949 165.510 M254.388 170.313 C 254.388 171.064,254.468 171.372,254.566 170.996 C 254.664 170.620,254.664 170.005,254.566 169.629 C 254.468 169.253,254.388 169.561,254.388 170.313 M171.582 169.801 C 171.958 169.899,172.573 169.899,172.949 169.801 C 173.325 169.702,173.018 169.622,172.266 169.622 C 171.514 169.622,171.206 169.702,171.582 169.801 M344.238 169.816 C 345.044 169.900,346.362 169.900,347.168 169.816 C 347.974 169.732,347.314 169.663,345.703 169.663 C 344.092 169.663,343.433 169.732,344.238 169.816 M185.664 172.656 C 185.664 173.838,185.737 174.321,185.827 173.730 C 185.916 173.140,185.916 172.173,185.827 171.582 C 185.737 170.991,185.664 171.475,185.664 172.656 M79.813 173.438 C 79.813 174.834,79.883 175.405,79.970 174.707 C 80.057 174.009,80.057 172.866,79.970 172.168 C 79.883 171.470,79.813 172.041,79.813 173.438 M254.388 175.000 C 254.388 175.752,254.468 176.060,254.566 175.684 C 254.664 175.308,254.664 174.692,254.566 174.316 C 254.468 173.940,254.388 174.248,254.388 175.000 M283.324 176.758 C 283.326 178.047,283.399 178.527,283.486 177.825 C 283.573 177.123,283.571 176.068,283.482 175.481 C 283.393 174.894,283.322 175.469,283.324 176.758 M254.414 178.516 C 254.414 179.697,254.487 180.181,254.577 179.590 C 254.666 178.999,254.666 178.032,254.577 177.441 C 254.487 176.851,254.414 177.334,254.414 178.516 M235.063 178.011 C 235.549 178.104,236.252 178.101,236.626 178.003 C 236.999 177.905,236.602 177.829,235.742 177.833 C 234.883 177.837,234.577 177.917,235.063 178.011 M241.313 178.011 C 241.799 178.104,242.502 178.101,242.876 178.003 C 243.249 177.905,242.852 177.829,241.992 177.833 C 241.133 177.837,240.827 177.917,241.313 178.011 M283.302 180.664 C 283.306 181.523,283.386 181.829,283.479 181.343 C 283.573 180.857,283.569 180.154,283.472 179.781 C 283.374 179.407,283.297 179.805,283.302 180.664 M291.888 180.469 C 291.888 181.221,291.968 181.528,292.066 181.152 C 292.164 180.776,292.164 180.161,292.066 179.785 C 291.968 179.409,291.888 179.717,291.888 180.469 M97.949 179.963 C 98.433 180.056,99.224 180.056,99.707 179.963 C 100.190 179.870,99.795 179.794,98.828 179.794 C 97.861 179.794,97.466 179.870,97.949 179.963 M83.594 184.497 C 83.594 184.564,84.165 185.136,84.863 185.767 L 86.133 186.914 84.986 185.645 C 83.916 184.461,83.594 184.195,83.594 184.497 M172.168 185.041 C 172.651 185.134,173.442 185.134,173.926 185.041 C 174.409 184.948,174.014 184.872,173.047 184.872 C 172.080 184.872,171.685 184.948,172.168 185.041 M232.421 193.419 C 232.238 201.015,232.267 201.465,232.910 201.120 C 233.286 200.919,233.594 200.662,233.594 200.549 C 233.594 200.437,233.422 200.451,233.211 200.581 C 232.968 200.731,232.790 198.001,232.722 193.084 L 232.616 185.352 232.421 193.419 M245.781 193.457 C 245.738 197.915,245.835 201.563,245.996 201.563 C 246.157 201.564,246.243 199.147,246.188 196.192 C 246.000 186.251,245.859 185.300,245.781 193.457 M283.302 186.914 C 283.306 187.773,283.386 188.079,283.479 187.593 C 283.573 187.107,283.569 186.404,283.472 186.031 C 283.374 185.657,283.297 186.055,283.302 186.914 M208.291 193.815 C 208.226 199.215,208.076 201.158,207.715 201.304 C 207.332 201.458,207.335 201.508,207.727 201.532 C 208.549 201.582,208.618 200.871,208.496 193.542 L 208.379 186.523 208.291 193.815 M199.708 188.867 C 199.712 189.727,199.792 190.032,199.886 189.546 C 199.979 189.060,199.976 188.357,199.878 187.984 C 199.780 187.610,199.704 188.008,199.708 188.867 M254.422 190.625 C 254.422 192.021,254.493 192.593,254.579 191.895 C 254.666 191.196,254.666 190.054,254.579 189.355 C 254.493 188.657,254.422 189.229,254.422 190.625 M283.315 190.430 C 283.318 191.504,283.394 191.897,283.483 191.303 C 283.573 190.709,283.571 189.831,283.478 189.350 C 283.385 188.870,283.312 189.355,283.315 190.430 M291.895 190.430 C 291.900 191.289,291.980 191.595,292.073 191.109 C 292.167 190.623,292.163 189.920,292.065 189.546 C 291.967 189.173,291.891 189.570,291.895 190.430 M145.434 191.602 C 145.436 192.891,145.509 193.371,145.596 192.669 C 145.683 191.967,145.681 190.912,145.592 190.325 C 145.502 189.738,145.431 190.313,145.434 191.602 M343.100 193.750 C 343.100 195.361,343.169 196.021,343.253 195.215 C 343.338 194.409,343.338 193.091,343.253 192.285 C 343.169 191.479,343.100 192.139,343.100 193.750 M138.409 193.945 C 138.411 195.449,138.482 196.017,138.566 195.206 C 138.651 194.396,138.649 193.165,138.563 192.472 C 138.477 191.778,138.408 192.441,138.409 193.945 M254.409 195.117 C 254.412 196.191,254.487 196.584,254.577 195.991 C 254.667 195.397,254.665 194.518,254.572 194.038 C 254.479 193.557,254.406 194.043,254.409 195.117 M145.424 196.289 C 145.427 197.363,145.503 197.756,145.593 197.163 C 145.683 196.569,145.680 195.690,145.587 195.209 C 145.495 194.729,145.421 195.215,145.424 196.289 M183.963 197.949 L 182.617 199.414 184.082 198.068 C 184.888 197.328,185.547 196.668,185.547 196.603 C 185.547 196.305,185.216 196.586,183.963 197.949 M111.523 200.000 C 112.582 201.074,113.535 201.953,113.643 201.953 C 113.750 201.953,112.972 201.074,111.914 200.000 C 110.856 198.926,109.902 198.047,109.795 198.047 C 109.688 198.047,110.465 198.926,111.523 200.000 M279.191 202.235 C 279.884 202.321,281.114 202.323,281.925 202.238 C 282.735 202.154,282.168 202.083,280.664 202.081 C 279.160 202.080,278.497 202.149,279.191 202.235 M118.450 214.063 C 118.450 214.814,118.530 215.122,118.629 214.746 C 118.727 214.370,118.727 213.755,118.629 213.379 C 118.530 213.003,118.450 213.311,118.450 214.063 M270.959 213.605 C 270.603 213.998,270.318 214.481,270.324 214.679 C 270.331 214.877,270.511 214.739,270.725 214.372 C 270.939 214.005,271.329 213.756,271.592 213.819 C 271.855 213.883,271.937 213.860,271.775 213.770 C 271.612 213.679,271.579 213.444,271.700 213.248 C 272.074 212.643,271.640 212.852,270.959 213.605 M333.787 214.144 C 333.666 214.636,333.621 218.115,333.688 221.875 L 333.809 228.711 333.897 221.419 C 333.960 216.159,334.115 214.084,334.453 213.971 C 334.809 213.853,334.812 213.747,334.465 213.532 C 334.181 213.356,333.924 213.588,333.787 214.144 M168.555 213.938 C 168.984 214.056,169.481 214.352,169.659 214.596 C 169.872 214.889,169.928 214.840,169.823 214.453 C 169.736 214.131,169.240 213.835,168.719 213.795 C 167.974 213.738,167.939 213.768,168.555 213.938 M198.221 214.173 C 198.115 214.449,198.081 217.833,198.145 221.693 L 198.261 228.711 198.349 221.419 C 198.415 216.019,198.564 214.076,198.926 213.931 C 199.308 213.776,199.306 213.727,198.914 213.703 C 198.638 213.686,198.326 213.898,198.221 214.173 M279.077 214.182 C 278.969 214.462,278.932 216.879,278.993 219.553 L 279.106 224.414 279.299 219.042 C 279.489 213.748,279.463 213.175,279.077 214.182 M91.650 214.664 C 91.516 215.013,91.421 215.592,91.440 215.950 C 91.458 216.308,91.628 216.083,91.818 215.449 C 92.186 214.216,92.056 213.606,91.650 214.664 M287.599 215.430 C 287.603 216.289,287.683 216.595,287.776 216.109 C 287.870 215.623,287.866 214.920,287.768 214.546 C 287.671 214.173,287.594 214.570,287.599 215.430 M316.352 214.867 L 315.430 215.671 316.602 214.985 C 318.144 214.082,318.167 214.063,317.687 214.063 C 317.460 214.063,316.859 214.424,316.352 214.867 M222.808 215.442 C 222.451 215.986,222.231 216.502,222.318 216.589 C 222.405 216.675,222.772 216.230,223.134 215.600 C 223.940 214.195,223.700 214.079,222.808 215.442 M298.873 215.313 C 298.830 216.313,298.714 216.374,296.582 216.508 L 294.336 216.649 296.594 216.723 C 298.964 216.801,299.483 216.436,299.102 214.964 C 298.980 214.494,298.904 214.610,298.873 215.313 M256.916 221.374 C 256.960 224.710,257.092 227.535,257.209 227.652 C 257.326 227.769,257.422 225.121,257.422 221.768 C 257.422 218.415,257.290 215.590,257.129 215.490 C 256.968 215.390,256.872 218.038,256.916 221.374 M226.860 216.292 C 227.346 216.385,228.049 216.382,228.423 216.284 C 228.796 216.186,228.398 216.110,227.539 216.114 C 226.680 216.118,226.374 216.198,226.860 216.292 M318.088 217.030 L 316.992 218.045 318.119 217.226 C 319.636 216.123,323.206 216.373,322.489 217.533 C 322.385 217.701,322.584 217.839,322.930 217.839 C 323.387 217.839,323.269 217.588,322.500 216.927 C 321.098 215.720,319.462 215.759,318.088 217.030 M357.129 216.285 C 357.505 216.383,358.120 216.383,358.496 216.285 C 358.872 216.187,358.564 216.106,357.813 216.106 C 357.061 216.106,356.753 216.187,357.129 216.285 M188.379 216.686 C 188.970 216.776,189.937 216.776,190.527 216.686 C 191.118 216.597,190.635 216.523,189.453 216.523 C 188.271 216.523,187.788 216.597,188.379 216.686 M200.893 218.164 C 200.896 219.238,200.972 219.631,201.062 219.038 C 201.151 218.444,201.149 217.565,201.056 217.084 C 200.964 216.604,200.890 217.090,200.893 218.164 M204.163 216.670 C 203.693 217.141,203.898 217.665,204.468 217.446 C 204.829 217.307,205.089 217.536,205.196 218.088 C 205.360 218.933,205.363 218.933,205.416 218.114 C 205.472 217.238,204.600 216.233,204.163 216.670 M230.078 216.944 C 230.614 217.258,231.127 217.441,231.217 217.351 C 231.459 217.108,231.166 216.924,230.078 216.634 L 229.102 216.374 230.078 216.944 M118.450 219.531 C 118.450 220.283,118.530 220.591,118.629 220.215 C 118.727 219.839,118.727 219.224,118.629 218.848 C 118.530 218.472,118.450 218.779,118.450 219.531 M327.070 221.094 C 327.070 222.275,327.143 222.759,327.233 222.168 C 327.322 221.577,327.322 220.610,327.233 220.020 C 327.143 219.429,327.070 219.912,327.070 221.094 M352.734 219.398 C 352.734 219.611,353.218 220.212,353.809 220.733 L 354.883 221.680 353.906 220.508 C 353.369 219.863,352.886 219.263,352.832 219.173 C 352.778 219.084,352.734 219.185,352.734 219.398 M222.742 220.305 C 223.008 220.730,223.489 221.180,223.811 221.303 C 224.132 221.427,223.974 221.079,223.458 220.530 C 222.333 219.333,222.087 219.255,222.742 220.305 M313.393 221.289 C 313.396 222.363,313.472 222.756,313.562 222.163 C 313.651 221.569,313.649 220.690,313.556 220.209 C 313.464 219.729,313.390 220.215,313.393 221.289 M236.809 221.484 C 236.809 222.236,236.890 222.544,236.988 222.168 C 237.086 221.792,237.086 221.177,236.988 220.801 C 236.890 220.425,236.809 220.732,236.809 221.484 M93.162 221.423 C 93.588 221.926,94.290 222.519,94.722 222.740 C 95.552 223.165,95.431 223.034,93.557 221.479 C 92.430 220.542,92.416 220.540,93.162 221.423 M171.763 222.266 C 172.009 223.766,172.156 224.068,172.481 223.743 C 172.599 223.625,172.435 222.937,172.117 222.213 L 171.539 220.898 171.763 222.266 M191.016 221.592 C 191.016 222.048,190.559 222.262,189.355 222.370 L 187.695 222.520 189.368 222.588 C 190.954 222.653,191.966 221.914,191.259 221.207 C 191.125 221.073,191.016 221.246,191.016 221.592 M126.159 224.121 L 124.023 226.367 126.270 224.232 C 128.356 222.249,128.695 221.875,128.405 221.875 C 128.344 221.875,127.333 222.886,126.159 224.121 M291.497 223.047 C 291.497 223.799,291.577 224.106,291.676 223.730 C 291.774 223.354,291.774 222.739,291.676 222.363 C 291.577 221.987,291.497 222.295,291.497 223.047 M200.872 223.438 C 200.872 224.189,200.952 224.497,201.051 224.121 C 201.149 223.745,201.149 223.130,201.051 222.754 C 200.952 222.378,200.872 222.686,200.872 223.438 M204.942 223.230 C 204.788 223.630,204.853 223.772,205.115 223.610 C 205.379 223.447,205.486 223.689,205.404 224.263 C 205.332 224.765,204.834 225.397,204.297 225.668 C 203.688 225.975,203.555 226.163,203.943 226.166 C 205.276 226.178,206.256 224.277,205.517 223.112 C 205.253 222.695,205.138 222.718,204.942 223.230 M247.266 223.190 C 247.266 223.483,246.897 224.230,246.446 224.850 L 245.627 225.977 246.642 224.881 C 247.539 223.911,248.001 222.656,247.461 222.656 C 247.354 222.656,247.266 222.896,247.266 223.190 M231.739 224.414 C 231.743 225.273,231.823 225.579,231.917 225.093 C 232.010 224.607,232.007 223.904,231.909 223.531 C 231.811 223.157,231.735 223.555,231.739 224.414 M291.523 226.563 C 291.523 227.744,291.597 228.228,291.686 227.637 C 291.776 227.046,291.776 226.079,291.686 225.488 C 291.597 224.897,291.523 225.381,291.523 226.563 M352.604 224.870 C 352.461 225.013,352.364 225.760,352.389 226.530 L 352.434 227.930 352.738 226.367 C 353.058 224.726,353.033 224.441,352.604 224.870 M200.787 225.488 C 200.783 226.011,201.080 226.159,202.051 226.119 C 203.126 226.074,203.171 226.038,202.344 225.884 C 201.807 225.784,201.238 225.500,201.080 225.254 C 200.896 224.965,200.791 225.049,200.787 225.488 M336.440 226.758 C 336.443 227.832,336.519 228.225,336.608 227.631 C 336.698 227.038,336.696 226.159,336.603 225.678 C 336.510 225.198,336.437 225.684,336.440 226.758 M187.012 226.064 C 187.710 226.150,188.853 226.150,189.551 226.064 C 190.249 225.977,189.678 225.906,188.281 225.906 C 186.885 225.906,186.313 225.977,187.012 226.064 M261.241 226.068 C 262.160 226.150,263.566 226.149,264.366 226.065 C 265.166 225.981,264.414 225.914,262.695 225.915 C 260.977 225.917,260.322 225.985,261.241 226.068 M266.106 226.953 C 266.106 227.705,266.187 228.013,266.285 227.637 C 266.383 227.261,266.383 226.646,266.285 226.270 C 266.187 225.894,266.106 226.201,266.106 226.953 M361.585 226.348 C 361.458 226.678,360.777 227.301,360.072 227.731 C 359.366 228.161,359.006 228.513,359.271 228.514 C 359.920 228.516,362.369 226.301,362.060 225.992 C 361.925 225.858,361.712 226.018,361.585 226.348 M130.846 229.199 L 128.711 231.445 130.957 229.310 C 133.044 227.327,133.382 226.953,133.092 226.953 C 133.031 226.953,132.020 227.964,130.846 229.199 M229.883 227.761 C 229.238 228.174,228.911 228.512,229.156 228.514 C 229.401 228.515,230.016 228.170,230.523 227.747 C 231.684 226.780,231.405 226.786,229.883 227.761 M225.884 228.796 C 226.478 228.886,227.357 228.883,227.837 228.791 C 228.318 228.698,227.832 228.624,226.758 228.627 C 225.684 228.630,225.291 228.706,225.884 228.796 M243.266 228.792 C 243.752 228.885,244.455 228.882,244.829 228.784 C 245.202 228.686,244.805 228.610,243.945 228.614 C 243.086 228.618,242.780 228.698,243.266 228.792 M275.293 228.791 C 275.776 228.884,276.567 228.884,277.051 228.791 C 277.534 228.698,277.139 228.622,276.172 228.622 C 275.205 228.622,274.810 228.698,275.293 228.791 M319.438 228.792 C 319.924 228.885,320.627 228.882,321.001 228.784 C 321.374 228.686,320.977 228.610,320.117 228.614 C 319.258 228.618,318.952 228.698,319.438 228.792 M355.762 228.791 C 356.245 228.884,357.036 228.884,357.520 228.791 C 358.003 228.698,357.607 228.622,356.641 228.622 C 355.674 228.622,355.278 228.698,355.762 228.791 M76.086 239.194 C 76.577 239.466,76.846 239.821,76.684 239.982 C 76.523 240.144,76.714 240.152,77.109 240.000 C 77.843 239.718,76.651 238.700,75.586 238.700 C 75.371 238.700,75.596 238.922,76.086 239.194 M94.238 243.629 C 94.614 243.727,95.229 243.727,95.605 243.629 C 95.981 243.530,95.674 243.450,94.922 243.450 C 94.170 243.450,93.862 243.530,94.238 243.629 M97.173 243.636 C 97.658 243.729,98.362 243.726,98.735 243.628 C 99.108 243.530,98.711 243.454,97.852 243.458 C 96.992 243.462,96.687 243.542,97.173 243.636 " stroke="none" fill="#393c3b" fill-rule="evenodd"></path><path id="path3" d="M48.438 185.144 C 48.438 185.709,48.257 185.848,47.754 185.668 C 47.039 185.411,47.074 185.475,48.063 186.223 C 48.569 186.607,48.679 186.496,48.753 185.527 C 48.801 184.893,48.750 184.375,48.639 184.375 C 48.528 184.375,48.438 184.721,48.438 185.144 M52.930 187.500 C 54.098 188.002,55.073 188.002,54.297 187.500 C 53.975 187.292,53.359 187.131,52.930 187.143 L 52.148 187.164 52.930 187.500 M87.216 217.578 C 87.216 218.545,87.292 218.940,87.385 218.457 C 87.478 217.974,87.478 217.183,87.385 216.699 C 87.292 216.216,87.216 216.611,87.216 217.578 M62.093 229.004 C 63.051 230.024,63.886 230.859,63.949 230.859 C 64.242 230.859,63.932 230.509,62.207 228.890 L 60.352 227.148 62.093 229.004 " stroke="none" fill="#5b2124" fill-rule="evenodd"></path><path id="path4" d="M361.419 174.219 C 361.419 174.971,361.499 175.278,361.597 174.902 C 361.696 174.526,361.696 173.911,361.597 173.535 C 361.499 173.159,361.419 173.467,361.419 174.219 M310.254 186.615 C 311.274 186.696,312.944 186.696,313.965 186.615 C 314.985 186.535,314.150 186.469,312.109 186.469 C 310.068 186.469,309.233 186.535,310.254 186.615 M199.730 192.383 C 199.733 193.672,199.806 194.152,199.892 193.450 C 199.979 192.748,199.978 191.693,199.888 191.106 C 199.799 190.519,199.728 191.094,199.730 192.383 M309.277 193.259 C 311.050 193.332,313.950 193.332,315.723 193.259 C 317.495 193.187,316.045 193.128,312.500 193.128 C 308.955 193.128,307.505 193.187,309.277 193.259 M199.700 196.094 C 199.700 196.846,199.780 197.153,199.879 196.777 C 199.977 196.401,199.977 195.786,199.879 195.410 C 199.780 195.034,199.700 195.342,199.700 196.094 M275.125 198.438 C 275.125 199.834,275.196 200.405,275.283 199.707 C 275.369 199.009,275.369 197.866,275.283 197.168 C 275.196 196.470,275.125 197.041,275.125 198.438 M199.708 199.023 C 199.712 199.883,199.792 200.188,199.886 199.702 C 199.979 199.217,199.976 198.513,199.878 198.140 C 199.780 197.767,199.704 198.164,199.708 199.023 M343.476 216.797 C 343.476 217.979,343.550 218.462,343.639 217.871 C 343.729 217.280,343.729 216.313,343.639 215.723 C 343.550 215.132,343.476 215.615,343.476 216.797 M294.239 220.508 C 294.243 221.367,294.323 221.673,294.417 221.187 C 294.510 220.701,294.507 219.998,294.409 219.624 C 294.311 219.251,294.235 219.648,294.239 220.508 M201.469 220.198 C 201.955 220.292,202.658 220.288,203.032 220.190 C 203.405 220.092,203.008 220.016,202.148 220.020 C 201.289 220.025,200.983 220.105,201.469 220.198 M201.855 228.401 C 202.339 228.494,203.130 228.494,203.613 228.401 C 204.097 228.308,203.701 228.231,202.734 228.231 C 201.768 228.231,201.372 228.308,201.855 228.401 M89.160 236.988 C 89.536 237.086,90.151 237.086,90.527 236.988 C 90.903 236.890,90.596 236.809,89.844 236.809 C 89.092 236.809,88.784 236.890,89.160 236.988 " stroke="none" fill="#2f2426" fill-rule="evenodd"></path></g></svg>