<svg id="svg" version="1.1" xmlns="http://www.w3.org/2000/svg" xmlns:xlink="http://www.w3.org/1999/xlink" width="400" height="400" viewBox="0, 0, 400,400"><g id="svgg"><path id="path0" d="M200.391 134.369 C 199.639 134.561,198.672 134.667,198.242 134.604 C 197.813 134.541,197.705 134.569,198.002 134.666 C 198.314 134.768,197.866 135.147,196.945 135.559 C 195.257 136.315,191.198 140.215,190.803 141.462 C 190.674 141.867,190.418 142.106,190.233 141.991 C 190.049 141.877,189.771 141.990,189.615 142.241 C 189.439 142.527,189.502 142.594,189.783 142.420 C 190.031 142.267,190.232 142.284,190.228 142.457 C 190.217 143.074,189.197 145.708,189.034 145.543 C 188.291 144.798,189.429 152.843,190.348 154.832 C 191.522 157.376,191.577 157.574,191.020 157.229 C 190.794 157.090,190.736 157.256,190.879 157.630 C 191.034 158.032,191.220 158.114,191.383 157.850 C 191.539 157.598,192.196 158.034,193.028 158.938 C 205.262 172.244,226.318 154.150,215.186 139.895 C 214.789 139.387,214.577 138.772,214.716 138.528 C 214.855 138.285,214.837 138.204,214.676 138.349 C 214.514 138.494,213.639 138.045,212.730 137.352 C 211.822 136.658,210.507 135.854,209.810 135.565 C 209.080 135.263,208.723 134.927,208.969 134.775 C 209.204 134.630,208.821 134.499,208.116 134.485 C 207.412 134.471,205.693 134.360,204.297 134.239 C 202.900 134.117,201.143 134.176,200.391 134.369 M265.970 139.368 C 266.175 139.751,266.763 140.498,267.276 141.028 C 270.564 144.425,279.865 163.971,279.119 165.916 C 279.007 166.208,279.054 166.361,279.225 166.256 C 280.072 165.732,283.183 180.318,282.531 181.759 C 282.317 182.231,282.273 182.969,282.431 183.398 C 282.680 184.070,282.742 184.016,282.874 183.008 C 282.958 182.363,283.268 184.196,283.561 187.081 C 284.807 199.320,282.797 214.201,278.367 225.530 C 275.989 231.612,272.741 237.989,272.194 237.651 C 271.920 237.481,271.863 237.556,272.044 237.848 C 272.577 238.711,266.497 247.608,265.922 246.806 C 265.640 246.413,265.600 246.442,265.754 246.928 C 266.010 247.735,264.933 249.320,264.366 248.970 C 264.123 248.819,264.053 248.888,264.203 249.130 C 264.551 249.693,260.219 254.773,259.676 254.437 C 259.444 254.294,259.362 254.351,259.494 254.564 C 259.807 255.071,256.887 257.920,256.456 257.527 C 256.274 257.362,256.234 257.419,256.368 257.653 C 256.695 258.227,252.472 261.844,251.892 261.486 C 251.620 261.318,251.548 261.379,251.709 261.640 C 252.331 262.645,235.809 273.887,234.710 273.208 C 234.442 273.042,234.359 273.095,234.508 273.336 C 234.881 273.940,233.524 274.333,233.100 273.744 C 232.832 273.372,232.790 273.404,232.937 273.870 C 233.131 274.482,232.726 274.707,225.491 278.022 C 224.795 278.341,223.951 278.496,223.616 278.368 C 223.276 278.237,223.109 278.300,223.238 278.508 C 223.625 279.135,212.625 283.158,207.639 284.213 C 206.147 284.528,204.829 284.887,204.710 285.011 C 204.508 285.219,208.704 284.946,212.305 284.516 C 213.164 284.414,214.613 284.263,215.526 284.181 C 216.438 284.100,217.357 283.926,217.568 283.795 C 217.780 283.665,218.329 283.759,218.789 284.005 C 219.249 284.251,219.527 284.293,219.405 284.097 C 219.284 283.901,220.274 283.520,221.604 283.250 C 222.935 282.980,225.450 282.328,227.194 281.802 C 228.938 281.275,230.608 280.906,230.905 280.983 C 231.202 281.059,231.299 281.043,231.120 280.947 C 230.941 280.851,232.611 280.029,234.831 279.121 C 239.495 277.212,242.524 275.712,246.703 273.241 C 248.340 272.273,249.866 271.597,250.095 271.739 C 250.324 271.880,250.402 271.819,250.268 271.602 C 250.134 271.386,250.854 270.622,251.868 269.906 C 283.913 247.267,296.968 207.659,284.554 170.742 C 282.706 165.245,278.624 156.314,276.567 153.267 C 275.920 152.308,275.391 151.437,275.391 151.331 C 275.391 151.225,274.688 150.207,273.828 149.069 C 272.969 147.931,272.266 146.796,272.266 146.547 C 272.266 146.298,272.094 146.094,271.885 146.094 C 271.676 146.094,271.247 145.610,270.931 145.020 C 270.616 144.429,269.908 143.435,269.359 142.810 C 268.809 142.186,268.359 141.559,268.359 141.416 C 268.359 141.052,266.200 138.672,265.869 138.672 C 265.720 138.672,265.765 138.985,265.970 139.368 " stroke="none" fill="#ededec" fill-rule="evenodd"></path><path id="path1" d="M177.023 113.654 C 177.092 113.967,176.943 114.230,176.693 114.240 C 176.442 114.250,176.111 114.383,175.958 114.537 C 175.804 114.691,175.354 114.643,174.957 114.430 C 174.364 114.113,174.281 114.161,174.491 114.707 C 174.684 115.212,174.589 115.310,174.091 115.119 C 173.732 114.981,173.438 115.046,173.438 115.264 C 173.438 115.481,173.218 115.631,172.949 115.596 C 171.752 115.440,171.062 115.648,171.330 116.082 C 171.520 116.389,171.400 116.457,170.963 116.290 C 170.605 116.152,170.313 116.225,170.313 116.451 C 170.313 116.677,170.093 116.782,169.824 116.684 C 169.556 116.586,168.946 116.861,168.468 117.295 C 167.746 117.951,167.499 117.999,166.995 117.580 C 166.486 117.158,166.426 117.176,166.622 117.687 C 166.802 118.156,166.626 118.272,165.861 118.188 C 165.256 118.121,164.963 118.236,165.114 118.481 C 165.267 118.728,165.105 118.784,164.692 118.626 C 164.294 118.473,164.119 118.525,164.261 118.754 C 164.392 118.967,164.326 119.141,164.113 119.141 C 163.901 119.141,163.075 119.756,162.278 120.508 C 161.481 121.260,160.583 121.875,160.284 121.875 C 159.985 121.875,159.120 122.494,158.363 123.251 C 157.606 124.009,156.835 124.534,156.650 124.420 C 156.464 124.305,155.749 124.872,155.061 125.680 C 154.372 126.488,153.939 126.885,154.099 126.563 C 154.258 126.240,153.313 127.079,151.999 128.426 C 150.685 129.773,149.609 131.122,149.609 131.425 C 149.609 131.727,149.038 132.445,148.340 133.019 C 147.642 133.594,147.334 133.945,147.656 133.799 C 147.979 133.653,147.854 133.877,147.380 134.297 C 146.906 134.716,146.642 135.197,146.794 135.365 C 146.946 135.534,146.738 135.551,146.331 135.405 C 145.718 135.184,145.673 135.235,146.065 135.707 C 146.443 136.163,146.383 136.430,145.762 137.051 C 145.336 137.477,145.104 137.956,145.247 138.116 C 145.391 138.275,145.228 138.306,144.885 138.184 C 144.393 138.008,144.303 138.172,144.455 138.967 C 144.603 139.744,144.514 139.921,144.061 139.747 C 143.622 139.578,143.501 139.767,143.581 140.495 C 143.713 141.698,143.031 143.750,142.498 143.750 C 142.281 143.750,142.210 144.028,142.341 144.367 C 142.717 145.347,142.172 146.953,141.544 146.712 C 141.115 146.547,141.084 146.663,141.397 147.249 C 141.859 148.112,141.937 149.743,141.504 149.474 C 141.343 149.374,141.211 151.385,141.211 153.943 C 141.211 156.500,141.363 158.593,141.549 158.593 C 141.736 158.594,141.804 159.033,141.701 159.570 C 141.599 160.107,141.666 160.547,141.851 160.547 C 142.358 160.547,142.255 161.878,141.699 162.501 C 141.315 162.931,141.372 162.927,141.962 162.481 C 142.656 161.957,142.696 161.981,142.487 162.793 C 142.363 163.276,142.432 163.672,142.641 163.672 C 142.851 163.672,142.903 164.044,142.758 164.502 C 142.613 164.959,142.651 165.235,142.843 165.117 C 143.335 164.813,143.300 166.542,142.808 166.874 C 142.563 167.039,142.668 167.246,143.077 167.404 C 143.447 167.546,143.750 167.840,143.750 168.058 C 143.750 168.308,143.555 168.294,143.226 168.020 C 142.937 167.781,142.558 167.715,142.382 167.874 C 142.206 168.034,142.180 167.958,142.324 167.707 C 142.470 167.452,142.128 166.890,141.553 166.438 C 140.984 165.991,140.675 165.619,140.865 165.611 C 141.055 165.603,140.684 165.144,140.039 164.592 C 139.395 164.039,139.131 163.706,139.453 163.853 C 139.844 164.031,139.816 163.937,139.369 163.570 C 138.843 163.138,138.801 162.917,139.174 162.541 C 139.547 162.165,139.502 162.119,138.964 162.324 C 138.083 162.659,136.929 160.259,137.589 159.464 C 137.905 159.082,137.837 159.029,137.296 159.237 C 136.836 159.414,136.682 159.360,136.852 159.084 C 136.996 158.851,136.893 158.586,136.624 158.495 C 136.241 158.366,136.252 158.186,136.676 157.672 C 137.154 157.093,137.137 157.045,136.533 157.277 C 135.937 157.506,135.905 157.431,136.292 156.709 C 136.652 156.035,136.634 155.917,136.195 156.085 C 135.475 156.361,134.980 154.003,135.601 153.255 C 135.847 152.958,135.936 152.603,135.798 152.465 C 135.660 152.326,135.547 152.419,135.547 152.669 C 135.547 152.920,135.371 153.125,135.156 153.125 C 134.605 153.125,134.670 151.826,135.254 151.171 C 135.667 150.707,135.640 150.700,135.077 151.125 C 134.460 151.591,134.414 151.289,134.433 146.892 C 134.451 142.643,134.516 142.208,135.064 142.660 C 135.606 143.107,135.621 143.063,135.199 142.270 C 134.703 141.340,134.963 139.678,135.548 140.040 C 135.733 140.154,135.620 139.717,135.296 139.069 C 134.615 137.704,134.357 137.562,134.570 138.672 C 134.653 139.102,134.545 139.453,134.330 139.453 C 134.114 139.453,134.048 139.630,134.181 139.847 C 134.315 140.063,134.151 140.345,133.816 140.473 C 133.481 140.602,133.305 140.864,133.424 141.057 C 133.543 141.249,133.454 141.406,133.226 141.406 C 132.999 141.406,132.833 141.538,132.859 141.699 C 132.981 142.475,132.774 142.991,132.426 142.776 C 132.205 142.640,132.139 142.795,132.272 143.140 C 132.402 143.480,132.258 143.838,131.942 143.959 C 131.633 144.077,131.380 144.411,131.380 144.701 C 131.380 145.556,130.405 147.656,130.008 147.656 C 129.806 147.656,129.750 147.832,129.883 148.047 C 130.016 148.262,129.944 148.438,129.723 148.438 C 129.502 148.438,129.434 148.732,129.572 149.091 C 129.762 149.587,129.665 149.684,129.169 149.494 C 128.418 149.206,128.266 149.819,129.004 150.163 C 129.375 150.336,129.381 150.443,129.026 150.611 C 128.769 150.732,128.663 151.102,128.790 151.432 C 128.916 151.762,128.804 152.166,128.540 152.329 C 128.276 152.492,128.009 153.397,127.947 154.340 C 127.803 156.543,127.799 156.552,127.301 155.859 C 126.965 155.392,126.940 155.432,127.176 156.055 C 127.692 157.411,127.834 162.821,127.390 164.152 C 127.000 165.320,127.014 165.365,127.544 164.671 C 128.088 163.962,128.129 164.018,128.184 165.550 C 128.272 168.028,128.292 168.144,128.686 168.427 C 128.902 168.583,128.839 168.946,128.533 169.315 C 128.089 169.850,128.108 169.904,128.660 169.692 C 129.130 169.512,129.243 169.607,129.076 170.043 C 128.945 170.383,129.209 171.006,129.684 171.480 C 130.144 171.941,130.546 172.646,130.576 173.046 C 130.606 173.446,130.770 173.688,130.940 173.583 C 131.111 173.477,131.250 173.588,131.250 173.828 C 131.250 174.068,131.426 174.156,131.641 174.023 C 131.855 173.891,132.031 173.979,132.031 174.219 C 132.031 174.459,132.207 174.547,132.422 174.414 C 132.637 174.281,132.813 174.367,132.813 174.603 C 132.813 174.840,133.032 174.990,133.301 174.935 C 133.569 174.881,134.229 175.078,134.766 175.375 C 135.303 175.671,135.786 175.884,135.840 175.847 C 136.322 175.521,137.152 175.887,136.976 176.347 C 136.823 176.745,136.946 176.841,137.389 176.672 C 137.857 176.492,137.933 176.572,137.684 176.984 C 137.411 177.438,137.458 177.452,137.942 177.060 C 138.396 176.693,138.641 176.688,138.994 177.041 C 139.246 177.293,139.453 177.365,139.453 177.200 C 139.453 177.035,139.956 177.258,140.571 177.696 C 141.187 178.134,141.830 178.366,142.001 178.211 C 142.172 178.056,142.192 178.262,142.045 178.669 C 141.819 179.295,141.869 179.333,142.374 178.914 C 142.813 178.549,142.969 178.541,142.969 178.881 C 142.969 179.135,143.174 179.216,143.426 179.061 C 143.744 178.864,143.797 179.002,143.600 179.514 C 143.445 179.919,143.441 180.126,143.592 179.976 C 144.008 179.560,146.882 181.310,146.589 181.801 C 146.449 182.035,146.632 181.985,146.995 181.690 C 147.646 181.163,147.869 181.419,147.707 182.505 C 147.684 182.659,147.909 182.691,148.207 182.576 C 148.505 182.462,148.867 182.559,149.011 182.792 C 149.155 183.025,149.480 183.095,149.734 182.947 C 149.988 182.799,149.848 183.104,149.424 183.624 C 149.000 184.145,148.890 184.364,149.179 184.113 C 149.794 183.577,150.895 183.875,150.523 184.476 C 150.384 184.702,150.452 184.774,150.675 184.636 C 151.226 184.295,153.198 185.895,152.873 186.420 C 152.730 186.651,152.785 186.734,152.994 186.605 C 153.202 186.476,153.826 186.790,154.379 187.302 C 154.932 187.815,155.469 188.151,155.572 188.047 C 155.676 187.944,155.739 188.262,155.712 188.754 C 155.677 189.403,155.852 189.617,156.348 189.534 C 156.739 189.468,157.052 189.677,157.080 190.022 C 157.180 191.261,157.236 191.407,157.617 191.445 C 158.806 191.562,159.423 192.244,158.912 192.876 C 158.630 193.224,158.574 193.416,158.789 193.301 C 159.004 193.186,159.487 193.416,159.863 193.812 C 160.239 194.208,160.415 194.537,160.254 194.543 C 160.093 194.550,160.271 194.735,160.649 194.956 C 161.066 195.199,161.315 195.771,161.281 196.409 C 161.249 196.987,161.355 197.771,161.515 198.149 C 161.739 198.679,161.661 198.781,161.176 198.595 C 160.830 198.463,160.547 198.148,160.547 197.897 C 160.547 197.645,160.182 197.127,159.736 196.745 C 159.043 196.152,159.000 195.954,159.443 195.388 C 159.915 194.785,159.897 194.777,159.237 195.296 C 158.493 195.881,155.559 193.380,156.053 192.582 C 156.156 192.414,155.936 192.036,155.562 191.743 C 154.934 191.251,154.926 191.270,155.462 191.992 C 156.034 192.764,156.031 192.764,155.178 192.038 C 154.704 191.633,154.427 191.106,154.564 190.866 C 154.701 190.626,154.667 190.562,154.488 190.724 C 154.310 190.886,153.754 190.750,153.254 190.422 C 152.753 190.094,152.344 189.951,152.344 190.105 C 152.344 190.258,152.096 190.044,151.792 189.630 C 151.489 189.215,151.341 188.715,151.462 188.518 C 151.584 188.321,151.477 188.288,151.226 188.443 C 150.974 188.599,150.873 188.933,151.000 189.187 C 151.127 189.441,150.847 189.209,150.376 188.672 C 149.906 188.135,149.409 187.715,149.272 187.739 C 149.135 187.762,148.540 187.613,147.949 187.407 C 146.949 187.059,146.682 186.661,146.851 185.774 C 146.888 185.576,146.613 185.664,146.238 185.969 C 145.628 186.465,145.586 186.446,145.834 185.785 C 146.070 185.157,146.022 185.120,145.517 185.539 C 145.077 185.904,144.922 185.912,144.922 185.572 C 144.922 185.318,144.746 185.219,144.531 185.352 C 144.316 185.484,144.141 185.419,144.141 185.206 C 144.141 184.753,142.626 184.174,141.841 184.328 C 141.476 184.399,141.384 184.216,141.557 183.763 C 141.783 183.175,141.734 183.159,141.156 183.636 C 140.642 184.060,140.462 184.072,140.333 183.689 C 140.242 183.419,140.007 183.298,139.810 183.419 C 139.614 183.540,139.453 183.435,139.453 183.184 C 139.453 182.934,139.189 182.830,138.867 182.954 C 138.545 183.077,138.281 183.014,138.281 182.813 C 138.281 182.611,137.987 182.559,137.627 182.697 C 137.130 182.888,137.034 182.790,137.228 182.285 C 137.442 181.727,137.360 181.688,136.710 182.036 C 136.158 182.332,135.938 182.327,135.938 182.019 C 135.938 181.756,135.610 181.692,135.097 181.855 C 134.473 182.053,134.310 181.982,134.465 181.578 C 134.627 181.156,134.285 181.058,132.922 181.137 C 131.399 181.227,131.204 181.152,131.429 180.561 C 131.636 180.017,131.589 179.980,131.195 180.371 C 130.423 181.138,129.061 181.029,129.705 180.252 C 130.156 179.709,130.092 179.698,129.101 180.150 C 128.227 180.548,127.958 180.552,127.831 180.172 C 127.731 179.872,127.312 179.779,126.725 179.926 C 126.206 180.056,125.781 179.992,125.781 179.784 C 125.781 179.576,125.313 179.495,124.741 179.604 C 123.904 179.764,123.747 179.680,123.941 179.176 C 124.148 178.636,124.045 178.611,123.195 178.999 C 122.418 179.353,122.141 179.337,121.886 178.925 C 121.709 178.637,121.303 178.502,120.985 178.623 C 120.668 178.745,120.222 178.659,119.994 178.432 C 119.767 178.204,118.867 178.018,117.994 178.018 C 117.121 178.018,116.406 177.883,116.406 177.718 C 116.406 177.552,116.075 177.504,115.669 177.610 C 115.264 177.716,114.824 177.628,114.692 177.414 C 114.560 177.201,114.071 177.126,113.606 177.248 C 112.898 177.433,112.806 177.347,113.043 176.723 C 113.271 176.124,113.230 176.073,112.836 176.465 C 112.253 177.043,110.783 177.128,111.133 176.563 C 111.365 176.186,110.339 175.981,108.864 176.109 C 108.416 176.148,108.261 176.004,108.440 175.714 C 108.635 175.399,108.500 175.343,108.005 175.533 C 107.596 175.690,107.169 175.614,107.009 175.355 C 106.855 175.106,106.273 174.902,105.716 174.902 C 105.158 174.902,104.796 174.751,104.910 174.565 C 105.025 174.379,104.844 174.333,104.508 174.462 C 103.883 174.702,102.619 173.940,102.897 173.491 C 102.981 173.354,102.672 173.228,102.209 173.211 C 101.159 173.173,100.255 172.926,100.000 172.608 C 99.538 172.034,94.209 169.593,93.959 169.843 C 93.808 169.994,93.743 169.864,93.815 169.554 C 93.887 169.243,93.597 168.917,93.166 168.824 C 92.214 168.619,90.570 167.372,90.864 167.078 C 90.981 166.961,90.543 166.471,89.890 165.988 C 89.237 165.505,88.797 164.958,88.912 164.772 C 89.027 164.586,88.971 164.482,88.788 164.541 C 88.604 164.600,87.756 164.055,86.903 163.330 C 86.050 162.605,85.615 162.155,85.938 162.331 C 86.442 162.606,86.449 162.558,85.987 161.989 C 85.315 161.161,85.335 161.155,85.260 162.207 C 85.226 162.690,85.093 163.657,84.964 164.355 C 84.822 165.127,84.890 165.625,85.138 165.625 C 85.363 165.625,85.542 166.196,85.536 166.895 C 85.526 168.161,85.751 170.333,85.932 170.703 C 85.985 170.811,85.996 171.206,85.958 171.582 C 85.920 171.958,86.096 172.266,86.349 172.266 C 86.617 172.266,86.725 172.592,86.606 173.046 C 86.493 173.476,86.564 173.928,86.762 174.050 C 86.960 174.173,87.021 174.436,86.897 174.636 C 86.774 174.836,86.847 175.000,87.060 175.000 C 87.273 175.000,87.432 175.562,87.412 176.249 C 87.393 176.936,87.570 177.563,87.807 177.641 C 88.044 177.720,88.129 178.066,87.998 178.410 C 87.824 178.861,87.903 178.945,88.281 178.711 C 88.664 178.475,88.737 178.562,88.555 179.037 C 88.418 179.395,88.439 179.688,88.601 179.688 C 88.763 179.688,88.925 180.067,88.960 180.531 C 88.995 180.995,89.252 181.520,89.531 181.697 C 89.811 181.874,89.874 182.022,89.671 182.025 C 89.469 182.029,89.638 182.276,90.047 182.575 C 90.684 183.040,90.715 183.210,90.262 183.756 C 89.806 184.305,89.821 184.359,90.374 184.147 C 90.992 183.910,91.182 184.350,91.116 185.866 C 91.104 186.149,91.179 186.295,91.283 186.191 C 91.533 185.941,93.192 187.612,93.066 187.988 C 93.013 188.149,93.145 188.281,93.359 188.281 C 93.574 188.281,93.750 188.532,93.750 188.839 C 93.750 189.146,94.162 189.720,94.665 190.116 C 95.168 190.512,95.536 191.132,95.483 191.495 C 95.393 192.108,96.312 193.214,96.837 193.124 C 97.226 193.057,98.438 193.916,98.438 194.258 C 98.438 194.433,98.218 194.449,97.949 194.292 C 97.681 194.135,97.800 194.392,98.213 194.864 C 98.694 195.411,99.101 195.586,99.341 195.347 C 99.811 194.876,100.938 195.915,100.582 196.491 C 100.445 196.713,100.477 196.869,100.655 196.838 C 101.697 196.657,102.407 196.928,102.213 197.434 C 102.065 197.820,102.224 197.950,102.726 197.853 C 103.129 197.776,103.559 197.987,103.689 198.326 C 103.819 198.664,104.035 198.830,104.170 198.695 C 104.305 198.560,104.665 198.755,104.971 199.127 C 105.319 199.552,105.422 199.586,105.245 199.219 C 105.090 198.896,105.351 199.032,105.825 199.520 C 106.299 200.009,106.834 200.317,107.014 200.206 C 107.193 200.095,107.445 200.278,107.573 200.613 C 107.706 200.958,108.006 201.099,108.267 200.937 C 108.584 200.741,108.643 200.871,108.456 201.358 C 108.217 201.982,108.263 202.001,108.853 201.520 C 109.435 201.047,109.491 201.057,109.287 201.603 C 109.106 202.086,109.274 202.204,110.025 202.122 C 110.768 202.041,110.942 202.159,110.763 202.625 C 110.560 203.155,110.617 203.164,111.197 202.692 C 111.780 202.217,111.835 202.229,111.626 202.788 C 111.440 203.285,111.567 203.380,112.200 203.215 C 112.823 203.051,112.936 203.130,112.681 203.552 C 112.420 203.985,112.506 203.977,113.084 203.516 C 113.756 202.979,113.795 202.992,113.541 203.669 C 113.315 204.269,113.365 204.323,113.809 203.955 C 114.486 203.393,115.741 203.822,115.472 204.523 C 115.340 204.868,115.482 204.958,115.904 204.797 C 116.368 204.619,116.451 204.701,116.218 205.109 C 115.961 205.559,116.001 205.571,116.427 205.176 C 117.052 204.595,117.726 204.524,117.386 205.074 C 117.244 205.303,117.420 205.355,117.821 205.201 C 118.331 205.005,118.436 205.096,118.252 205.576 C 118.072 206.044,118.174 206.147,118.639 205.968 C 119.092 205.794,119.179 205.872,118.949 206.244 C 118.734 206.591,118.780 206.668,119.088 206.478 C 119.772 206.055,122.330 206.998,121.999 207.551 C 121.792 207.897,121.862 207.899,122.288 207.559 C 122.888 207.080,124.050 207.851,123.524 208.377 C 123.382 208.519,123.597 208.508,124.002 208.353 C 124.510 208.158,124.651 208.210,124.458 208.523 C 124.269 208.828,124.397 208.892,124.848 208.718 C 125.300 208.545,125.428 208.609,125.239 208.914 C 125.051 209.218,125.178 209.282,125.630 209.109 C 126.081 208.935,126.209 208.999,126.020 209.304 C 125.832 209.609,125.959 209.673,126.411 209.499 C 126.863 209.326,126.990 209.390,126.802 209.695 C 126.623 209.984,126.727 210.069,127.089 209.930 C 127.400 209.810,127.773 209.903,127.917 210.136 C 128.061 210.369,128.372 210.440,128.609 210.294 C 128.884 210.124,128.951 210.258,128.794 210.666 C 128.660 211.016,128.722 211.410,128.933 211.540 C 129.144 211.670,129.268 211.632,129.209 211.455 C 129.150 211.278,129.277 211.133,129.492 211.133 C 129.707 211.133,129.857 211.359,129.826 211.635 C 129.783 212.018,129.897 212.031,130.310 211.688 C 130.728 211.341,130.905 211.382,131.092 211.870 C 131.225 212.217,131.597 212.500,131.920 212.500 C 132.247 212.500,132.417 212.729,132.306 213.021 C 132.196 213.307,132.345 213.542,132.637 213.542 C 132.930 213.542,133.073 213.351,132.957 213.118 C 132.840 212.886,133.098 213.131,133.530 213.662 C 133.963 214.194,134.285 214.810,134.248 215.030 C 134.210 215.250,134.378 215.393,134.621 215.348 C 134.864 215.302,135.392 215.651,135.793 216.122 C 136.513 216.967,136.513 216.971,135.742 216.400 C 135.026 215.869,135.004 215.875,135.474 216.477 C 135.757 216.838,136.344 217.064,136.779 216.981 C 137.391 216.863,137.474 216.943,137.148 217.337 C 136.660 217.924,136.965 218.390,137.660 218.123 C 137.922 218.023,138.476 218.329,138.892 218.803 C 139.308 219.278,139.458 219.555,139.225 219.420 C 138.993 219.285,138.802 219.421,138.802 219.722 C 138.802 220.023,138.905 220.258,139.030 220.245 C 139.798 220.162,140.247 220.366,140.039 220.703 C 139.906 220.918,140.004 221.094,140.257 221.094 C 140.518 221.094,140.631 221.418,140.519 221.846 C 140.388 222.350,140.488 222.534,140.825 222.405 C 141.101 222.299,141.460 222.427,141.622 222.690 C 141.823 223.015,141.742 223.077,141.369 222.883 C 141.067 222.726,141.125 222.848,141.498 223.154 C 141.870 223.460,142.061 223.825,141.921 223.964 C 141.781 224.104,141.872 224.219,142.122 224.219 C 142.373 224.219,142.541 224.351,142.495 224.512 C 142.449 224.673,142.619 225.177,142.872 225.632 C 143.125 226.087,143.221 226.571,143.085 226.706 C 142.950 226.842,143.063 226.953,143.337 226.953 C 143.676 226.953,143.785 227.387,143.678 228.305 C 143.591 229.049,143.604 229.573,143.706 229.471 C 144.213 228.964,144.917 231.763,144.437 232.378 C 143.991 232.949,144.015 232.953,144.692 232.422 C 145.397 231.868,145.426 231.900,145.216 233.004 C 145.094 233.646,145.158 234.477,145.358 234.850 C 145.601 235.305,145.531 235.983,145.146 236.905 C 144.610 238.188,143.913 238.938,144.375 237.735 C 144.490 237.434,144.370 237.056,144.107 236.893 C 143.781 236.692,143.730 236.761,143.945 237.109 C 144.134 237.415,144.108 237.526,143.878 237.384 C 143.667 237.254,143.174 236.436,142.782 235.566 C 142.390 234.696,141.898 233.984,141.690 233.984 C 141.480 233.984,141.512 233.742,141.763 233.440 C 142.120 233.009,142.076 232.907,141.552 232.951 C 141.113 232.989,140.775 232.582,140.553 231.747 C 140.368 231.054,139.858 230.295,139.419 230.060 C 138.741 229.697,138.698 229.538,139.135 228.999 C 139.518 228.527,139.523 228.441,139.157 228.661 C 138.545 229.028,137.472 228.007,137.395 226.984 C 137.364 226.567,137.242 226.255,137.126 226.291 C 136.772 226.399,134.375 224.488,134.375 224.097 C 134.375 223.897,134.683 223.968,135.059 224.257 C 135.435 224.545,135.321 224.308,134.807 223.731 C 134.292 223.153,133.727 222.769,133.552 222.877 C 133.123 223.143,129.855 220.729,129.990 220.246 C 130.049 220.036,129.933 219.965,129.732 220.089 C 129.181 220.430,128.093 219.899,128.383 219.430 C 128.523 219.203,128.451 219.135,128.221 219.277 C 127.730 219.580,126.493 219.179,126.731 218.794 C 126.821 218.648,126.296 218.548,125.564 218.573 C 124.628 218.604,124.341 218.488,124.595 218.182 C 124.849 217.875,124.560 217.760,123.618 217.791 C 122.589 217.825,122.374 217.723,122.686 217.347 C 122.996 216.973,122.888 216.911,122.227 217.084 C 121.556 217.260,121.436 217.187,121.694 216.761 C 121.971 216.301,121.912 216.303,121.334 216.772 C 120.770 217.230,120.586 217.239,120.326 216.819 C 120.152 216.537,119.826 216.419,119.602 216.558 C 119.378 216.696,119.077 216.619,118.933 216.386 C 118.789 216.153,118.406 216.064,118.081 216.189 C 117.668 216.347,117.560 216.235,117.721 215.816 C 117.901 215.347,117.803 215.296,117.271 215.580 C 116.518 215.983,115.032 215.191,115.533 214.655 C 115.691 214.486,115.402 214.565,114.892 214.831 C 114.178 215.203,113.897 215.208,113.676 214.851 C 113.518 214.595,113.233 214.357,113.042 214.322 C 112.851 214.287,112.749 214.096,112.815 213.899 C 112.881 213.701,112.633 213.789,112.263 214.094 C 111.768 214.503,111.550 214.526,111.435 214.182 C 111.348 213.926,111.025 213.813,110.717 213.931 C 110.409 214.049,110.156 213.957,110.156 213.726 C 110.156 213.495,109.893 213.407,109.570 213.531 C 109.248 213.654,108.984 213.550,108.984 213.300 C 108.984 213.049,108.789 212.965,108.550 213.113 C 108.311 213.261,107.988 213.175,107.832 212.922 C 107.676 212.670,107.036 212.419,106.411 212.366 C 105.619 212.299,105.289 212.070,105.326 211.614 C 105.368 211.089,105.232 211.037,104.642 211.352 C 104.142 211.620,103.906 211.617,103.906 211.342 C 103.906 211.119,103.555 210.938,103.125 210.938 C 102.695 210.938,102.344 210.751,102.344 210.524 C 102.344 210.296,102.168 210.219,101.953 210.352 C 101.738 210.484,101.563 210.378,101.563 210.114 C 101.563 209.851,101.454 209.744,101.321 209.877 C 101.188 210.010,100.831 209.871,100.528 209.568 C 100.225 209.265,99.732 209.112,99.432 209.227 C 99.119 209.347,98.606 209.009,98.229 208.432 C 97.867 207.880,97.413 207.526,97.220 207.645 C 97.027 207.764,96.764 207.588,96.636 207.254 C 96.508 206.919,96.264 206.731,96.094 206.836 C 95.924 206.941,95.680 206.753,95.552 206.418 C 95.423 206.084,95.154 205.911,94.955 206.035 C 94.755 206.158,94.207 205.720,93.737 205.060 C 93.268 204.401,92.801 203.944,92.701 204.044 C 92.600 204.145,92.000 203.685,91.366 203.022 C 90.462 202.075,90.113 201.919,89.739 202.292 C 89.366 202.665,89.384 202.841,89.822 203.111 C 90.287 203.399,90.294 203.559,89.861 204.081 C 89.422 204.610,89.433 204.671,89.936 204.478 C 90.479 204.269,91.276 205.842,91.080 206.738 C 91.044 206.899,91.171 207.031,91.361 207.031 C 91.696 207.031,92.315 208.492,92.230 209.082 C 92.207 209.243,92.374 209.375,92.601 209.375 C 92.829 209.375,92.918 209.532,92.799 209.725 C 92.680 209.917,92.845 210.175,93.166 210.298 C 93.487 210.422,93.750 210.734,93.750 210.992 C 93.750 211.251,94.058 211.814,94.434 212.243 C 94.921 212.800,94.949 212.928,94.531 212.687 C 93.845 212.292,94.638 213.493,95.608 214.316 C 95.898 214.564,96.163 215.123,96.196 215.559 C 96.229 215.995,96.386 216.271,96.546 216.173 C 96.951 215.922,97.691 217.406,97.350 217.785 C 97.196 217.955,97.296 217.964,97.572 217.805 C 98.162 217.464,101.638 221.047,101.280 221.626 C 101.154 221.829,101.234 221.883,101.458 221.744 C 101.682 221.606,102.082 221.755,102.347 222.075 C 102.613 222.395,103.091 222.656,103.410 222.656 C 103.798 222.656,103.904 222.879,103.732 223.328 C 103.590 223.697,103.596 223.878,103.744 223.730 C 103.892 223.582,104.523 223.823,105.146 224.267 C 105.769 224.710,106.550 225.113,106.881 225.162 C 107.213 225.210,107.602 225.431,107.746 225.653 C 108.076 226.160,109.864 227.147,110.254 227.036 C 110.415 226.990,110.547 227.119,110.547 227.322 C 110.547 227.717,115.234 229.948,115.723 229.785 C 115.884 229.731,116.016 229.893,116.016 230.143 C 116.016 230.394,116.124 230.490,116.257 230.357 C 116.390 230.224,116.755 230.371,117.067 230.683 C 117.560 231.176,118.685 231.445,119.629 231.296 C 119.790 231.271,119.922 231.445,119.922 231.682 C 119.922 231.920,120.171 232.019,120.476 231.902 C 121.132 231.650,122.770 232.950,122.356 233.393 C 122.199 233.562,122.466 233.494,122.949 233.242 C 123.567 232.921,123.828 232.912,123.828 233.212 C 123.828 233.448,124.034 233.513,124.285 233.357 C 124.585 233.172,124.663 233.282,124.511 233.676 C 124.384 234.009,124.485 234.272,124.738 234.265 C 126.113 234.226,126.590 234.407,126.315 234.863 C 126.145 235.147,126.329 235.107,126.756 234.766 C 127.411 234.242,127.466 234.244,127.264 234.785 C 127.088 235.256,127.295 235.373,128.194 235.310 C 128.885 235.263,129.434 235.450,129.560 235.777 C 129.675 236.078,129.927 236.226,130.119 236.108 C 130.638 235.787,130.543 236.478,129.980 237.119 C 129.712 237.424,129.918 237.328,130.437 236.904 C 131.175 236.302,131.333 236.268,131.158 236.751 C 131.025 237.117,131.158 237.396,131.483 237.435 C 131.784 237.471,132.302 237.529,132.634 237.565 C 132.966 237.601,133.151 237.853,133.047 238.124 C 132.923 238.448,133.131 238.566,133.652 238.465 C 134.263 238.348,134.389 238.464,134.195 238.968 C 134.056 239.329,134.068 239.500,134.221 239.347 C 134.373 239.194,134.768 239.287,135.098 239.554 C 135.593 239.955,135.645 239.937,135.397 239.453 C 135.232 239.131,135.446 239.263,135.873 239.746 C 136.299 240.229,136.813 240.625,137.014 240.625 C 137.594 240.625,138.772 242.100,138.519 242.509 C 138.393 242.713,138.552 243.097,138.871 243.363 C 139.191 243.628,139.453 243.715,139.453 243.555 C 139.453 243.395,139.715 243.481,140.035 243.746 C 140.355 244.012,140.503 244.412,140.365 244.636 C 140.227 244.860,140.290 244.934,140.505 244.801 C 140.720 244.668,141.406 245.094,142.030 245.747 C 142.654 246.401,142.988 246.893,142.773 246.842 C 142.559 246.791,141.943 246.932,141.406 247.155 C 140.209 247.653,134.766 247.746,134.766 247.269 C 134.766 247.079,134.458 246.919,134.082 246.913 C 132.784 246.892,131.833 246.663,130.924 246.152 C 130.422 245.870,129.917 245.734,129.803 245.848 C 129.688 245.963,129.338 245.800,129.024 245.486 C 128.710 245.172,128.264 245.031,128.034 245.173 C 127.804 245.315,127.379 245.108,127.089 244.712 C 126.800 244.315,126.560 244.157,126.557 244.359 C 126.553 244.561,126.421 244.531,126.264 244.291 C 126.106 244.051,125.537 243.732,125.000 243.582 C 124.329 243.394,124.192 243.425,124.562 243.681 C 124.858 243.886,124.992 244.228,124.860 244.442 C 124.590 244.878,125.890 246.695,127.261 247.798 C 127.759 248.199,128.080 248.612,127.975 248.718 C 127.870 248.823,128.256 249.352,128.834 249.894 C 129.411 250.435,129.612 250.725,129.282 250.537 C 128.951 250.349,129.215 250.694,129.868 251.302 C 130.520 251.911,130.791 252.278,130.469 252.118 C 129.737 251.755,131.356 253.703,133.103 255.289 C 133.823 255.941,134.439 256.852,134.474 257.312 C 134.509 257.772,134.679 258.061,134.853 257.954 C 135.027 257.846,135.059 257.551,134.924 257.297 C 134.790 257.044,135.133 257.363,135.687 258.008 C 136.240 258.652,136.619 259.394,136.528 259.655 C 136.437 259.917,136.558 260.252,136.796 260.399 C 137.049 260.556,137.121 260.491,136.968 260.244 C 136.824 260.010,136.885 259.709,137.103 259.574 C 137.321 259.439,137.500 259.619,137.500 259.974 C 137.500 260.330,137.855 260.713,138.289 260.826 C 138.925 260.993,138.988 261.142,138.614 261.593 C 138.358 261.901,138.311 262.115,138.508 262.068 C 139.616 261.806,141.929 263.531,141.713 264.458 C 141.652 264.720,141.910 264.987,142.287 265.051 C 142.664 265.114,142.872 265.003,142.748 264.803 C 142.625 264.604,142.333 264.558,142.100 264.702 C 141.828 264.871,141.790 264.780,141.995 264.449 C 142.236 264.059,142.532 264.206,143.204 265.049 C 143.694 265.663,144.024 266.278,143.939 266.416 C 143.854 266.554,144.033 266.667,144.336 266.667 C 144.639 266.667,144.777 266.476,144.642 266.243 C 144.507 266.011,144.785 266.161,145.259 266.577 C 145.733 266.993,146.037 267.552,145.935 267.820 C 145.814 268.135,146.028 268.252,146.543 268.153 C 147.097 268.046,147.274 268.164,147.129 268.543 C 146.987 268.912,147.155 269.042,147.648 268.947 C 148.048 268.870,148.476 269.069,148.599 269.389 C 148.722 269.709,148.991 269.867,149.196 269.740 C 149.402 269.613,149.769 269.881,150.012 270.335 C 150.255 270.789,150.551 271.064,150.669 270.946 C 151.110 270.505,152.403 271.547,152.170 272.156 C 151.983 272.643,152.046 272.675,152.485 272.311 C 152.915 271.953,153.088 271.996,153.284 272.507 C 153.421 272.865,153.633 273.060,153.753 272.940 C 154.098 272.594,155.456 273.923,155.193 274.349 C 155.063 274.558,155.155 274.608,155.397 274.458 C 155.639 274.309,156.347 274.451,156.970 274.773 C 157.594 275.096,158.214 275.249,158.349 275.115 C 158.484 274.980,158.594 275.043,158.594 275.254 C 158.594 275.465,159.641 276.138,160.921 276.750 C 162.201 277.362,163.159 278.007,163.049 278.184 C 162.940 278.362,163.088 278.415,163.379 278.304 C 163.670 278.192,164.558 278.372,165.353 278.704 C 166.147 279.036,166.797 279.213,166.797 279.098 C 166.797 278.983,167.229 279.171,167.756 279.517 C 168.284 279.863,168.899 280.032,169.123 279.893 C 169.348 279.755,169.531 279.822,169.531 280.043 C 169.531 280.264,169.795 280.343,170.117 280.219 C 170.439 280.096,170.703 280.184,170.703 280.415 C 170.703 280.646,170.949 280.740,171.250 280.625 C 171.550 280.510,171.912 280.603,172.054 280.833 C 172.196 281.062,172.935 281.250,173.698 281.250 C 174.778 281.250,175.033 281.381,174.855 281.845 C 174.667 282.335,174.767 282.365,175.424 282.013 C 176.009 281.701,176.367 281.707,176.766 282.038 C 177.065 282.286,177.501 282.371,177.734 282.227 C 177.968 282.082,178.405 282.168,178.705 282.417 C 179.005 282.666,179.568 282.830,179.957 282.781 C 180.346 282.732,180.972 282.826,181.348 282.990 C 181.724 283.153,182.308 283.181,182.645 283.051 C 182.983 282.921,183.604 283.000,184.025 283.225 C 184.465 283.460,186.981 283.609,189.953 283.576 C 192.793 283.544,195.901 283.529,196.860 283.543 C 197.818 283.557,198.701 283.408,198.823 283.212 C 198.950 283.006,199.645 282.991,200.467 283.176 C 201.530 283.416,201.845 283.377,201.709 283.022 C 201.582 282.691,202.094 282.538,203.389 282.518 C 204.413 282.503,205.311 282.309,205.385 282.087 C 205.459 281.866,205.772 281.781,206.080 281.900 C 206.388 282.018,206.641 281.950,206.641 281.749 C 206.641 281.547,207.256 281.403,208.008 281.428 C 208.868 281.457,209.375 281.292,209.375 280.983 C 209.375 280.714,209.616 280.586,209.911 280.699 C 210.205 280.812,210.690 280.660,210.988 280.362 C 211.286 280.064,211.749 279.893,212.015 279.982 C 212.282 280.071,212.500 279.942,212.500 279.697 C 212.500 279.452,212.676 279.359,212.891 279.492 C 213.105 279.625,213.281 279.537,213.281 279.297 C 213.281 279.057,213.457 278.969,213.672 279.102 C 213.887 279.234,214.063 279.146,214.063 278.906 C 214.063 278.666,214.238 278.578,214.453 278.711 C 214.668 278.844,214.844 278.804,214.844 278.622 C 214.844 278.440,215.223 278.263,215.688 278.228 C 216.152 278.193,216.655 277.965,216.805 277.721 C 216.956 277.477,217.176 277.336,217.293 277.408 C 217.411 277.480,218.140 277.012,218.914 276.367 C 219.689 275.723,220.577 275.193,220.890 275.191 C 221.202 275.188,221.740 274.837,222.086 274.410 C 222.431 273.982,222.590 273.896,222.438 274.219 C 222.287 274.541,222.733 274.189,223.429 273.438 C 224.126 272.686,224.481 272.422,224.219 272.852 C 223.957 273.281,224.493 272.842,225.412 271.875 C 226.330 270.908,226.837 270.469,226.538 270.898 C 226.239 271.328,227.088 270.625,228.425 269.336 C 229.762 268.047,231.318 266.336,231.882 265.534 C 232.447 264.732,233.090 264.188,233.312 264.325 C 233.533 264.462,233.602 264.392,233.464 264.169 C 233.326 263.946,233.576 263.304,234.018 262.741 C 234.460 262.179,234.715 261.719,234.583 261.719 C 234.452 261.719,234.571 261.474,234.848 261.174 C 235.125 260.874,235.467 260.699,235.608 260.784 C 235.749 260.869,235.773 260.587,235.660 260.157 C 235.548 259.727,235.625 259.375,235.833 259.375 C 236.191 259.375,237.633 256.572,237.727 255.691 C 237.752 255.461,237.798 254.955,237.831 254.567 C 237.864 254.178,238.064 253.968,238.277 254.099 C 238.498 254.236,238.564 254.079,238.430 253.731 C 238.302 253.397,238.402 253.125,238.653 253.125 C 238.904 253.125,239.007 252.961,238.884 252.761 C 238.760 252.561,238.830 252.292,239.039 252.163 C 239.248 252.034,239.320 251.670,239.199 251.355 C 239.078 251.039,239.157 250.781,239.375 250.781 C 239.592 250.781,239.679 250.430,239.566 250.000 C 239.448 249.546,239.554 249.219,239.821 249.219 C 240.074 249.219,240.167 249.035,240.028 248.811 C 239.890 248.587,239.987 248.149,240.245 247.839 C 240.508 247.522,240.706 246.148,240.698 244.696 C 240.684 242.357,240.737 242.184,241.262 242.836 C 241.795 243.499,241.805 243.483,241.392 242.635 C 241.117 242.069,240.996 240.233,241.078 237.850 C 241.151 235.723,241.059 233.984,240.874 233.984 C 240.523 233.984,240.694 232.409,241.193 231.055 C 241.430 230.410,241.401 230.376,241.029 230.859 C 240.672 231.324,240.605 231.110,240.707 229.818 C 240.777 228.923,240.700 228.274,240.535 228.376 C 240.369 228.478,240.234 228.288,240.234 227.953 C 240.234 227.618,240.047 227.344,239.817 227.344 C 239.570 227.344,239.508 227.006,239.664 226.514 C 239.827 226.000,239.778 225.776,239.537 225.925 C 239.066 226.216,238.537 224.363,238.916 223.750 C 239.077 223.488,239.005 223.427,238.732 223.596 C 238.313 223.854,238.127 223.313,238.176 221.977 C 238.185 221.711,238.040 221.588,237.852 221.704 C 237.664 221.820,237.571 221.393,237.646 220.756 C 237.753 219.829,237.655 219.643,237.152 219.822 C 236.806 219.945,236.641 219.916,236.784 219.756 C 236.927 219.597,236.694 219.116,236.265 218.687 C 235.837 218.259,235.582 217.658,235.700 217.353 C 235.817 217.047,235.732 216.797,235.512 216.797 C 235.291 216.797,235.220 216.620,235.353 216.403 C 235.487 216.187,235.322 215.905,234.986 215.776 C 234.650 215.647,234.375 215.311,234.375 215.030 C 234.375 214.748,234.171 214.450,233.921 214.367 C 233.511 214.230,233.232 213.496,233.115 212.244 C 233.092 211.996,232.873 211.870,232.629 211.964 C 231.984 212.211,228.397 208.296,228.654 207.626 C 228.797 207.253,228.675 207.145,228.281 207.296 C 227.909 207.438,227.032 206.829,225.880 205.626 C 224.882 204.584,224.201 203.991,224.367 204.307 C 224.533 204.624,224.284 204.443,223.814 203.906 C 223.344 203.369,222.889 202.977,222.803 203.035 C 222.507 203.237,220.313 201.931,220.313 201.552 C 220.313 201.343,220.093 201.216,219.824 201.270 C 219.556 201.323,219.361 201.053,219.392 200.670 C 219.440 200.082,219.352 200.051,218.831 200.475 C 218.311 200.897,218.250 200.878,218.447 200.350 C 218.625 199.874,218.463 199.748,217.772 199.824 C 216.639 199.948,215.122 198.940,215.498 198.313 C 215.650 198.059,215.449 198.115,215.051 198.438 C 214.495 198.886,214.287 198.909,214.161 198.533 C 214.070 198.263,213.835 198.141,213.639 198.263 C 213.442 198.384,213.281 198.325,213.281 198.132 C 213.281 197.938,212.573 197.568,211.707 197.308 C 210.842 197.049,210.212 196.709,210.309 196.554 C 210.405 196.398,209.779 196.310,208.919 196.358 C 207.628 196.430,207.395 196.336,207.592 195.824 C 207.788 195.313,207.727 195.288,207.253 195.682 C 206.923 195.955,206.458 196.025,206.169 195.844 C 205.891 195.670,205.356 195.578,204.980 195.640 C 204.604 195.702,204.297 195.582,204.297 195.374 C 204.297 195.165,203.918 195.094,203.455 195.215 C 202.863 195.370,202.698 195.296,202.901 194.968 C 203.112 194.626,202.902 194.572,202.123 194.768 C 201.399 194.950,201.140 194.900,201.317 194.612 C 201.468 194.367,201.286 194.190,200.887 194.194 C 200.507 194.197,199.515 194.024,198.683 193.810 C 197.851 193.596,196.900 193.524,196.568 193.652 C 196.163 193.807,196.061 193.728,196.258 193.410 C 196.472 193.063,196.266 193.009,195.480 193.206 C 194.702 193.401,194.278 193.295,193.928 192.816 C 193.664 192.454,193.296 192.190,193.110 192.229 C 192.348 192.388,190.248 191.308,190.487 190.880 C 190.644 190.601,190.539 190.616,190.214 190.918 C 189.525 191.557,188.926 191.543,189.176 190.894 C 189.320 190.518,189.044 190.427,188.143 190.553 C 187.467 190.647,187.045 190.586,187.205 190.416 C 187.365 190.246,186.782 189.788,185.908 189.397 C 185.035 189.006,184.416 188.531,184.532 188.343 C 184.649 188.155,184.322 188.047,183.806 188.103 C 183.281 188.161,182.775 187.965,182.657 187.658 C 182.541 187.356,182.177 187.109,181.848 187.109 C 181.519 187.109,181.250 186.904,181.250 186.654 C 181.250 186.403,181.136 186.312,180.996 186.452 C 180.856 186.592,180.491 186.402,180.185 186.029 C 179.854 185.625,179.751 185.588,179.929 185.938 C 180.189 186.447,180.140 186.452,179.549 185.973 C 179.176 185.670,178.953 185.206,179.055 184.943 C 179.167 184.648,178.986 184.529,178.584 184.633 C 178.224 184.727,177.578 184.518,177.148 184.169 C 176.719 183.821,176.614 183.664,176.916 183.820 C 177.280 184.009,177.369 183.951,177.182 183.648 C 177.026 183.396,176.759 183.277,176.588 183.383 C 176.163 183.646,174.870 182.168,175.141 181.729 C 175.356 181.381,172.650 178.472,172.257 178.629 C 172.145 178.674,171.530 178.302,170.890 177.803 C 170.250 177.304,169.917 176.988,170.150 177.102 C 170.382 177.216,170.573 177.063,170.573 176.762 C 170.573 176.461,170.470 176.233,170.345 176.256 C 169.824 176.348,168.770 175.674,168.958 175.369 C 169.071 175.188,168.831 174.862,168.426 174.645 C 168.020 174.428,167.382 173.782,167.007 173.210 C 166.632 172.638,166.490 172.271,166.691 172.396 C 166.893 172.520,167.057 172.390,167.057 172.107 C 167.057 171.824,166.779 171.612,166.439 171.636 C 166.009 171.666,165.825 171.348,165.837 170.595 C 165.847 169.870,165.687 169.574,165.353 169.702 C 165.078 169.807,164.890 169.768,164.935 169.615 C 164.981 169.461,164.700 168.860,164.311 168.279 C 163.922 167.698,163.735 167.011,163.894 166.754 C 164.090 166.436,164.017 166.388,163.666 166.605 C 163.296 166.834,163.216 166.749,163.386 166.307 C 163.526 165.941,163.377 165.595,163.017 165.457 C 162.640 165.312,162.488 164.932,162.614 164.448 C 162.726 164.021,162.664 163.672,162.476 163.672 C 162.288 163.672,162.235 163.408,162.359 163.086 C 162.482 162.764,162.395 162.500,162.163 162.500 C 161.932 162.500,161.855 162.208,161.993 161.850 C 162.160 161.413,162.092 161.292,161.785 161.482 C 161.218 161.833,161.193 161.139,161.735 160.125 C 162.044 159.548,162.021 159.389,161.638 159.467 C 161.360 159.524,161.157 159.263,161.187 158.887 C 161.217 158.511,161.063 158.203,160.845 158.203 C 160.615 158.203,160.546 157.720,160.681 157.046 C 160.808 156.410,160.776 155.806,160.611 155.703 C 160.445 155.601,160.345 153.529,160.389 151.099 C 160.503 144.794,160.480 145.008,160.980 145.703 C 161.319 146.174,161.347 146.135,161.125 145.508 C 160.640 144.141,160.553 142.620,160.947 142.377 C 161.157 142.247,161.328 141.790,161.328 141.360 C 161.328 140.892,161.500 140.685,161.758 140.844 C 162.041 141.020,162.027 140.811,161.717 140.232 C 161.369 139.580,161.362 139.283,161.692 139.079 C 161.936 138.928,162.023 138.511,161.886 138.152 C 161.748 137.794,161.786 137.500,161.970 137.499 C 162.154 137.499,162.345 136.928,162.394 136.230 C 162.443 135.533,162.758 134.762,163.092 134.517 C 163.427 134.272,163.674 133.921,163.640 133.735 C 163.469 132.786,163.720 132.357,164.313 132.584 C 164.849 132.790,164.873 132.733,164.461 132.236 C 164.182 131.900,164.139 131.641,164.362 131.641 C 164.579 131.641,164.733 131.333,164.703 130.957 C 164.667 130.513,164.903 130.295,165.374 130.335 C 165.871 130.377,165.972 130.269,165.697 129.994 C 165.165 129.462,165.567 128.488,166.682 127.605 C 167.179 127.212,167.497 126.747,167.389 126.572 C 167.281 126.397,167.466 126.149,167.800 126.020 C 168.135 125.892,168.311 125.628,168.191 125.434 C 167.963 125.065,169.076 124.425,169.695 124.569 C 169.893 124.616,169.839 124.395,169.577 124.078 C 169.184 123.605,169.344 123.309,170.487 122.396 C 171.251 121.787,171.875 121.157,171.875 120.996 C 171.875 120.634,173.536 118.945,173.893 118.945 C 174.036 118.945,174.534 118.506,175.000 117.969 C 175.466 117.432,176.008 116.970,176.205 116.943 C 176.402 116.917,176.694 116.852,176.855 116.799 C 177.017 116.747,177.293 116.730,177.470 116.760 C 177.648 116.791,177.700 116.667,177.588 116.486 C 177.277 115.983,178.901 114.758,179.549 115.007 C 179.862 115.127,180.018 115.062,179.895 114.863 C 179.772 114.664,179.980 114.328,180.357 114.117 C 180.961 113.779,180.914 113.701,179.970 113.464 C 179.357 113.310,178.676 113.377,178.384 113.619 C 178.012 113.928,177.739 113.913,177.385 113.565 C 176.999 113.186,176.923 113.204,177.023 113.654 M174.778 181.603 C 174.662 181.718,174.403 181.555,174.203 181.239 C 174.004 180.923,173.837 180.827,173.834 181.025 C 173.831 181.224,173.394 180.978,172.864 180.480 C 172.333 179.982,172.001 179.408,172.126 179.206 C 172.251 179.004,172.946 179.413,173.671 180.115 C 174.396 180.817,174.893 181.487,174.778 181.603 M162.357 197.539 C 162.260 197.636,162.328 198.229,162.508 198.858 C 162.703 199.536,162.689 200.000,162.473 200.000 C 162.273 200.000,162.109 199.814,162.109 199.586 C 162.109 199.359,161.890 199.305,161.621 199.466 C 161.265 199.680,161.272 199.587,161.648 199.123 C 162.036 198.645,162.058 198.290,161.737 197.690 C 161.382 197.027,161.413 196.932,161.922 197.127 C 162.258 197.256,162.454 197.442,162.357 197.539 M203.809 221.060 C 203.862 221.079,204.018 221.079,204.156 221.060 C 204.293 221.042,204.512 221.176,204.644 221.358 C 204.775 221.541,205.410 221.876,206.055 222.104 C 206.699 222.331,207.185 222.718,207.134 222.963 C 207.081 223.215,207.299 223.310,207.635 223.181 C 208.396 222.889,213.908 228.540,213.379 229.069 C 213.254 229.194,213.378 229.297,213.655 229.297 C 214.061 229.297,214.063 229.411,213.664 229.892 C 213.248 230.393,213.279 230.445,213.857 230.223 C 214.454 229.994,214.486 230.069,214.099 230.791 C 213.727 231.485,213.752 231.585,214.249 231.395 C 214.968 231.119,215.030 231.687,214.355 232.367 C 213.964 232.761,214.013 232.803,214.606 232.577 C 215.272 232.324,215.319 232.435,215.082 233.696 C 214.938 234.465,214.957 235.180,215.125 235.284 C 215.716 235.649,215.209 239.527,214.600 239.293 C 214.176 239.131,214.131 239.242,214.409 239.760 C 214.820 240.530,214.021 241.980,213.451 241.498 C 213.264 241.340,213.370 241.551,213.685 241.968 C 214.208 242.659,214.194 242.700,213.519 242.447 C 212.863 242.201,212.841 242.244,213.324 242.838 C 213.796 243.419,213.787 243.476,213.249 243.274 C 212.909 243.147,212.611 243.246,212.588 243.494 C 212.445 245.026,212.064 245.625,210.611 246.608 C 209.716 247.213,208.802 248.048,208.580 248.463 C 208.348 248.896,207.765 249.219,207.213 249.219 C 206.683 249.219,206.250 249.416,206.250 249.657 C 206.250 249.943,206.020 249.909,205.589 249.560 C 205.027 249.104,204.977 249.105,205.257 249.568 C 205.513 249.995,205.362 250.071,204.562 249.918 C 204.000 249.810,203.620 249.853,203.719 250.013 C 203.902 250.310,202.509 250.666,199.902 250.989 C 199.016 251.099,198.438 251.007,198.438 250.756 C 198.438 250.528,198.130 250.373,197.754 250.411 C 196.451 250.544,196.044 250.397,196.341 249.902 C 196.540 249.571,196.423 249.586,195.973 249.950 C 195.443 250.380,195.196 250.390,194.727 250.000 C 194.404 249.733,194.141 249.621,194.141 249.753 C 194.141 249.885,193.833 249.742,193.457 249.436 C 191.262 247.649,189.020 246.109,189.260 246.554 C 189.413 246.838,189.086 246.543,188.533 245.898 C 187.981 245.254,187.522 244.409,187.514 244.020 C 187.506 243.631,187.343 243.411,187.150 243.529 C 186.591 243.875,186.269 242.534,186.767 241.934 C 187.132 241.494,187.087 241.439,186.533 241.652 C 185.937 241.881,185.905 241.806,186.292 241.084 C 186.674 240.369,186.644 240.288,186.079 240.504 C 185.554 240.706,185.466 240.585,185.643 239.910 C 185.765 239.444,185.703 239.063,185.507 239.063 C 185.308 239.063,185.247 238.152,185.369 237.012 C 185.490 235.884,185.631 234.258,185.683 233.398 C 185.735 232.539,185.995 231.440,186.262 230.957 C 186.528 230.474,186.650 230.078,186.532 230.078 C 186.415 230.078,186.774 229.356,187.332 228.473 C 187.889 227.590,188.111 226.988,187.825 227.135 C 187.539 227.283,187.719 227.039,188.224 226.594 C 188.730 226.149,189.345 225.906,189.591 226.054 C 189.838 226.201,189.775 225.991,189.453 225.586 C 189.131 225.181,189.075 224.975,189.328 225.127 C 189.582 225.279,189.902 225.222,190.039 225.000 C 190.176 224.778,190.479 224.715,190.712 224.859 C 190.955 225.008,191.025 224.940,190.876 224.700 C 190.538 224.152,192.824 222.521,193.417 222.887 C 193.699 223.062,193.765 222.997,193.592 222.716 C 193.280 222.212,194.814 221.469,196.651 221.232 C 197.280 221.151,197.894 220.986,198.015 220.865 C 198.181 220.699,203.252 220.870,203.809 221.060 " stroke="none" fill="#742bbd" fill-rule="evenodd"></path><path id="path2" d="M143.423 140.056 C 142.768 141.492,142.893 141.799,143.601 140.493 C 143.931 139.883,144.129 139.311,144.039 139.222 C 143.950 139.132,143.673 139.508,143.423 140.056 M160.690 150.586 C 160.691 152.734,160.756 153.563,160.835 152.428 C 160.914 151.293,160.914 149.535,160.833 148.522 C 160.753 147.509,160.689 148.438,160.690 150.586 M134.856 148.438 C 134.856 149.189,134.937 149.497,135.035 149.121 C 135.133 148.745,135.133 148.130,135.035 147.754 C 134.937 147.378,134.856 147.686,134.856 148.438 M140.724 151.367 C 140.728 152.227,140.808 152.532,140.901 152.046 C 140.995 151.560,140.991 150.857,140.893 150.484 C 140.796 150.110,140.719 150.508,140.724 151.367 M140.742 156.250 C 140.742 157.432,140.815 157.915,140.905 157.324 C 140.994 156.733,140.994 155.767,140.905 155.176 C 140.815 154.585,140.742 155.068,140.742 156.250 M127.094 160.547 C 127.094 162.588,127.160 163.423,127.240 162.402 C 127.321 161.382,127.321 159.712,127.240 158.691 C 127.160 157.671,127.094 158.506,127.094 160.547 M84.496 163.086 C 84.498 164.375,84.571 164.855,84.658 164.153 C 84.745 163.451,84.743 162.396,84.654 161.809 C 84.565 161.222,84.494 161.797,84.496 163.086 M172.266 179.028 C 172.266 179.096,172.837 179.667,173.535 180.298 L 174.805 181.445 173.657 180.176 C 172.588 178.992,172.266 178.727,172.266 179.028 M89.453 182.571 C 89.453 182.991,90.615 185.156,90.840 185.156 C 90.948 185.156,90.745 184.585,90.390 183.887 C 89.665 182.461,89.453 182.164,89.453 182.571 M93.359 189.063 C 93.818 189.707,94.282 190.234,94.389 190.234 C 94.497 190.234,94.209 189.707,93.750 189.063 C 93.291 188.418,92.828 187.891,92.720 187.891 C 92.613 187.891,92.900 188.418,93.359 189.063 M97.070 193.359 C 98.346 194.648,99.477 195.703,99.585 195.703 C 99.692 195.703,98.737 194.648,97.461 193.359 C 96.185 192.070,95.054 191.016,94.946 191.016 C 94.839 191.016,95.795 192.070,97.070 193.359 M106.641 200.570 C 106.641 200.677,107.344 201.124,108.203 201.563 C 109.063 202.001,109.766 202.272,109.766 202.164 C 109.766 202.057,109.063 201.610,108.203 201.172 C 107.344 200.733,106.641 200.463,106.641 200.570 M93.109 204.208 C 93.418 204.708,95.703 206.399,95.703 206.128 C 95.703 206.031,95.058 205.460,94.269 204.858 C 93.480 204.257,92.958 203.964,93.109 204.208 M226.563 205.591 C 226.563 205.658,227.134 206.229,227.832 206.861 L 229.102 208.008 227.954 206.738 C 226.885 205.555,226.563 205.289,226.563 205.591 M135.938 216.602 C 137.104 217.783,138.147 218.750,138.255 218.750 C 138.362 218.750,137.495 217.783,136.328 216.602 C 135.161 215.420,134.118 214.453,134.011 214.453 C 133.904 214.453,134.771 215.420,135.938 216.602 M133.203 222.778 C 133.203 222.846,133.774 223.417,134.473 224.048 L 135.742 225.195 134.595 223.926 C 133.525 222.742,133.203 222.477,133.203 222.778 M188.838 226.377 C 188.041 227.349,187.458 228.204,187.542 228.277 C 187.627 228.350,188.357 227.554,189.166 226.509 C 191.021 224.114,190.774 224.015,188.838 226.377 M185.668 236.523 C 185.670 237.812,185.743 238.293,185.830 237.591 C 185.917 236.889,185.915 235.834,185.826 235.247 C 185.737 234.660,185.666 235.234,185.668 236.523 M241.551 238.281 C 241.551 240.537,241.615 241.460,241.694 240.332 C 241.773 239.204,241.773 237.358,241.694 236.230 C 241.615 235.103,241.551 236.025,241.551 238.281 M136.822 247.155 C 137.416 247.245,138.294 247.243,138.775 247.150 C 139.255 247.057,138.770 246.984,137.695 246.987 C 136.621 246.990,136.228 247.066,136.822 247.155 M240.088 249.268 C 239.951 249.954,239.911 250.588,239.999 250.676 C 240.088 250.765,240.281 250.285,240.430 249.609 C 240.578 248.934,240.618 248.300,240.518 248.201 C 240.419 248.101,240.225 248.581,240.088 249.268 M135.742 258.984 C 136.800 260.059,137.754 260.938,137.861 260.938 C 137.969 260.938,137.191 260.059,136.133 258.984 C 135.075 257.910,134.121 257.031,134.014 257.031 C 133.906 257.031,134.684 257.910,135.742 258.984 M141.369 264.186 C 141.975 264.946,144.922 267.351,144.922 267.086 C 144.922 266.994,143.999 266.149,142.871 265.209 C 141.743 264.268,141.067 263.808,141.369 264.186 M181.738 283.472 C 182.114 283.571,182.729 283.571,183.105 283.472 C 183.481 283.374,183.174 283.294,182.422 283.294 C 181.670 283.294,181.362 283.374,181.738 283.472 M185.059 283.869 C 185.542 283.963,186.333 283.963,186.816 283.869 C 187.300 283.776,186.904 283.700,185.938 283.700 C 184.971 283.700,184.575 283.776,185.059 283.869 M196.191 283.863 C 196.567 283.961,197.183 283.961,197.559 283.863 C 197.935 283.765,197.627 283.684,196.875 283.684 C 196.123 283.684,195.815 283.765,196.191 283.863 " stroke="none" fill="#623885" fill-rule="evenodd"></path><path id="path3" d="M180.606 113.279 C 180.145 113.465,179.659 113.793,179.526 114.008 C 179.393 114.224,179.814 114.135,180.462 113.812 C 181.110 113.489,181.641 113.149,181.641 113.057 C 181.641 112.858,181.660 112.854,180.606 113.279 M161.133 121.094 C 160.488 121.521,160.137 121.867,160.352 121.864 C 160.743 121.858,162.867 120.335,162.500 120.324 C 162.393 120.320,161.777 120.667,161.133 121.094 M157.617 123.667 L 156.445 124.674 157.715 123.834 C 158.413 123.372,158.984 122.918,158.984 122.825 C 158.984 122.533,158.819 122.634,157.617 123.667 M134.560 134.783 C 134.433 134.988,134.383 135.170,134.450 135.186 C 135.424 135.427,135.938 135.420,135.938 135.163 C 135.938 134.674,134.818 134.365,134.560 134.783 M162.772 134.668 C 162.470 135.208,162.043 137.306,162.285 137.064 C 162.575 136.774,163.286 134.375,163.082 134.375 C 163.002 134.375,162.863 134.507,162.772 134.668 M135.417 137.760 C 135.273 137.904,135.156 138.353,135.156 138.760 C 135.156 139.219,134.985 139.394,134.705 139.221 C 134.424 139.046,134.360 139.114,134.537 139.399 C 134.934 140.042,135.420 139.639,135.641 138.482 C 135.843 137.429,135.820 137.357,135.417 137.760 M143.012 142.231 C 142.772 142.921,142.643 143.554,142.727 143.638 C 142.810 143.722,143.075 143.225,143.316 142.535 C 143.557 141.844,143.685 141.211,143.602 141.128 C 143.518 141.044,143.253 141.541,143.012 142.231 M132.227 142.969 C 131.893 143.613,131.708 144.141,131.816 144.141 C 131.923 144.141,132.284 143.613,132.617 142.969 C 132.950 142.324,133.135 141.797,133.028 141.797 C 132.920 141.797,132.560 142.324,132.227 142.969 M134.487 143.945 C 134.490 145.020,134.566 145.413,134.655 144.819 C 134.745 144.225,134.743 143.346,134.650 142.866 C 134.557 142.385,134.484 142.871,134.487 143.945 M142.020 145.536 C 141.876 146.108,141.834 146.652,141.926 146.744 C 142.018 146.836,142.211 146.443,142.355 145.871 C 142.499 145.298,142.541 144.754,142.449 144.662 C 142.357 144.570,142.164 144.963,142.020 145.536 M130.532 146.306 C 129.878 147.742,130.003 148.049,130.710 146.743 C 131.041 146.133,131.238 145.561,131.149 145.472 C 131.059 145.382,130.782 145.758,130.532 146.306 M134.414 149.056 C 134.435 150.327,134.588 151.807,134.754 152.344 C 134.919 152.881,134.966 151.914,134.857 150.195 C 134.621 146.475,134.359 145.801,134.414 149.056 M141.360 148.743 C 141.231 149.519,141.288 149.883,141.505 149.667 C 141.702 149.470,141.798 148.893,141.718 148.385 C 141.595 147.603,141.540 147.658,141.360 148.743 M141.156 154.297 C 141.156 156.338,141.222 157.173,141.303 156.152 C 141.383 155.132,141.383 153.462,141.303 152.441 C 141.222 151.421,141.156 152.256,141.156 154.297 M160.247 154.297 C 160.247 155.049,160.327 155.356,160.426 154.980 C 160.524 154.604,160.524 153.989,160.426 153.613 C 160.327 153.237,160.247 153.545,160.247 154.297 M127.480 160.547 C 127.480 162.373,127.548 163.120,127.630 162.207 C 127.712 161.294,127.712 159.800,127.630 158.887 C 127.548 157.974,127.480 158.721,127.480 160.547 M141.863 161.133 C 141.857 161.563,142.003 162.266,142.188 162.695 C 142.615 163.691,142.615 162.664,142.188 161.328 C 141.936 160.543,141.872 160.505,141.863 161.133 M84.828 162.728 C 84.876 164.194,84.928 164.342,85.050 163.353 C 85.191 162.207,85.285 162.116,85.867 162.565 C 86.332 162.925,86.297 162.790,85.746 162.103 C 85.319 161.569,84.923 161.060,84.867 160.970 C 84.811 160.881,84.794 161.672,84.828 162.728 M127.825 165.234 C 127.825 165.986,127.905 166.294,128.004 165.918 C 128.102 165.542,128.102 164.927,128.004 164.551 C 127.905 164.175,127.825 164.482,127.825 165.234 M163.281 166.165 C 163.281 166.584,164.444 168.750,164.669 168.750 C 164.776 168.750,164.573 168.179,164.218 167.480 C 163.493 166.055,163.281 165.757,163.281 166.165 M91.513 167.969 C 92.059 168.398,92.634 168.750,92.790 168.750 C 92.946 168.750,92.627 168.398,92.081 167.969 C 91.535 167.539,90.960 167.188,90.804 167.188 C 90.647 167.188,90.967 167.539,91.513 167.969 M130.066 172.634 C 130.681 173.782,131.243 173.971,130.725 172.855 C 130.477 172.319,130.135 171.880,129.967 171.878 C 129.798 171.876,129.843 172.217,130.066 172.634 M167.188 173.438 C 167.646 174.082,168.110 174.609,168.217 174.609 C 168.325 174.609,168.037 174.082,167.578 173.438 C 167.119 172.793,166.656 172.266,166.548 172.266 C 166.441 172.266,166.729 172.793,167.188 173.438 M103.125 174.053 C 103.125 174.317,105.154 175.054,105.348 174.861 C 105.436 174.772,104.972 174.513,104.317 174.284 C 103.661 174.056,103.125 173.952,103.125 174.053 M175.783 182.946 C 176.319 183.557,177.109 184.237,177.539 184.459 C 178.361 184.882,178.337 184.857,176.173 183.005 L 174.808 181.836 175.783 182.946 M89.121 201.171 C 89.345 201.816,89.686 202.246,89.877 202.128 C 90.069 202.009,89.944 201.482,89.599 200.956 C 88.767 199.686,88.625 199.750,89.121 201.171 M220.313 201.705 C 220.313 201.799,220.960 202.258,221.752 202.725 C 222.544 203.192,222.985 203.325,222.732 203.021 C 222.479 202.716,222.403 202.323,222.562 202.148 C 222.721 201.972,222.635 201.952,222.371 202.104 C 222.107 202.256,221.536 202.190,221.102 201.957 C 220.668 201.725,220.313 201.612,220.313 201.705 M225.781 205.617 C 227.072 207.065,227.998 207.552,228.357 206.972 C 228.525 206.700,228.466 206.625,228.209 206.784 C 227.974 206.930,227.111 206.480,226.293 205.785 C 224.973 204.664,224.915 204.645,225.781 205.617 M228.532 208.171 C 228.541 208.296,229.450 209.277,230.552 210.352 L 232.555 212.305 230.909 210.439 C 230.004 209.414,229.351 208.432,229.458 208.258 C 229.565 208.085,229.397 207.943,229.084 207.943 C 228.772 207.943,228.523 208.045,228.532 208.171 M237.539 221.094 C 237.525 221.201,237.956 222.432,238.496 223.828 C 239.037 225.225,239.373 225.840,239.241 225.195 C 239.017 224.093,237.597 220.671,237.539 221.094 M144.770 232.227 C 145.091 233.663,145.315 233.975,145.307 232.975 C 145.303 232.563,145.122 231.963,144.904 231.641 C 144.614 231.213,144.578 231.371,144.770 232.227 M241.095 237.738 C 241.051 239.481,240.933 241.766,240.831 242.817 L 240.646 244.727 241.042 242.834 C 241.259 241.794,241.378 239.509,241.306 237.756 L 241.175 234.570 241.095 237.738 M123.438 242.532 C 123.438 243.089,124.973 244.780,124.987 244.238 C 124.994 243.970,124.780 243.747,124.512 243.744 C 124.135 243.739,124.131 243.670,124.496 243.438 C 124.837 243.221,124.756 243.004,124.203 242.659 C 123.782 242.396,123.438 242.339,123.438 242.532 M187.514 244.358 C 187.529 244.750,189.448 247.222,189.451 246.853 C 189.452 246.734,189.014 246.041,188.477 245.313 C 187.939 244.584,187.506 244.155,187.514 244.358 M135.454 247.542 C 135.940 247.635,136.643 247.632,137.016 247.534 C 137.390 247.436,136.992 247.360,136.133 247.364 C 135.273 247.368,134.968 247.448,135.454 247.542 M138.770 247.535 C 139.146 247.633,139.761 247.633,140.137 247.535 C 140.513 247.437,140.205 247.356,139.453 247.356 C 138.701 247.356,138.394 247.437,138.770 247.535 M237.934 254.340 C 237.693 255.031,237.565 255.664,237.648 255.747 C 237.732 255.831,237.997 255.334,238.238 254.644 C 238.478 253.954,238.607 253.321,238.523 253.237 C 238.440 253.153,238.175 253.650,237.934 254.340 M135.121 257.747 C 135.332 258.141,135.811 258.712,136.186 259.017 C 136.608 259.359,136.514 259.086,135.939 258.301 C 134.913 256.899,134.528 256.639,135.121 257.747 M228.516 269.727 C 227.567 270.693,226.878 271.484,226.986 271.484 C 227.093 271.484,227.957 270.693,228.906 269.727 C 229.855 268.760,230.544 267.969,230.436 267.969 C 230.329 267.969,229.464 268.760,228.516 269.727 M223.795 272.891 C 223.076 273.757,223.028 274.479,223.690 274.479 C 224.067 274.479,224.117 274.352,223.846 274.081 C 223.576 273.810,223.654 273.456,224.089 272.974 C 224.442 272.584,224.637 272.266,224.522 272.266 C 224.408 272.266,224.081 272.547,223.795 272.891 M219.613 275.706 C 218.778 276.349,218.769 276.395,219.486 276.395 C 219.909 276.395,220.176 276.268,220.080 276.112 C 219.984 275.957,220.217 275.648,220.597 275.427 C 220.978 275.205,221.113 275.022,220.898 275.021 C 220.684 275.019,220.105 275.327,219.613 275.706 M209.180 283.594 C 208.687 283.805,208.615 283.929,208.984 283.929 C 209.307 283.929,209.922 283.778,210.352 283.594 C 210.844 283.382,210.916 283.258,210.547 283.258 C 210.225 283.258,209.609 283.409,209.180 283.594 M203.125 285.156 C 203.125 285.371,203.872 285.529,204.785 285.508 C 206.195 285.475,206.298 285.422,205.469 285.156 C 204.063 284.706,203.125 284.706,203.125 285.156 M208.110 285.042 C 208.596 285.135,209.299 285.132,209.673 285.034 C 210.046 284.936,209.648 284.860,208.789 284.864 C 207.930 284.868,207.624 284.948,208.110 285.042 " stroke="none" fill="#9438c8" fill-rule="evenodd"></path><path id="path4" d="M180.176 112.609 C 179.048 112.824,178.125 113.133,178.125 113.295 C 178.125 113.457,178.784 113.437,179.590 113.249 C 181.929 112.706,182.320 112.844,180.941 113.727 C 180.233 114.180,179.740 114.636,179.844 114.740 C 179.948 114.844,180.554 114.558,181.190 114.105 C 181.827 113.652,182.554 113.281,182.808 113.281 C 183.337 113.281,183.145 112.388,182.593 112.286 C 182.391 112.248,181.304 112.394,180.176 112.609 M174.023 114.488 C 172.949 114.904,172.510 115.150,173.047 115.035 C 173.584 114.919,174.507 114.719,175.098 114.590 C 175.688 114.461,176.172 114.202,176.172 114.014 C 176.172 113.826,176.128 113.685,176.074 113.702 C 176.021 113.719,175.098 114.073,174.023 114.488 M177.035 116.488 C 175.908 117.367,175.071 118.170,175.175 118.274 C 175.279 118.378,175.975 117.927,176.721 117.272 C 177.467 116.617,178.395 115.903,178.782 115.687 C 179.169 115.470,179.395 115.203,179.285 115.092 C 179.175 114.982,178.162 115.610,177.035 116.488 M169.238 116.028 C 168.755 116.222,168.359 116.546,168.359 116.748 C 168.359 116.953,168.787 116.916,169.333 116.662 C 169.868 116.414,170.308 116.079,170.309 115.918 C 170.313 115.578,170.372 115.572,169.238 116.028 M172.956 119.890 C 172.254 120.516,171.768 121.098,171.875 121.181 C 171.983 121.265,172.686 120.753,173.438 120.045 C 175.126 118.453,174.712 118.320,172.956 119.890 M158.984 121.875 C 158.454 122.275,158.105 122.688,158.209 122.791 C 158.313 122.895,158.819 122.639,159.333 122.222 C 160.551 121.235,160.242 120.927,158.984 121.875 M169.971 123.319 C 169.519 123.921,168.965 124.634,168.739 124.902 C 168.513 125.171,168.467 125.391,168.637 125.391 C 169.058 125.391,171.217 122.649,170.981 122.413 C 170.877 122.310,170.423 122.717,169.971 123.319 M153.877 126.046 L 152.930 127.092 154.199 126.215 C 155.480 125.329,155.737 125.000,155.146 125.000 C 154.969 125.000,154.398 125.471,153.877 126.046 M166.969 127.527 C 166.552 127.842,166.387 128.108,166.602 128.119 C 166.816 128.129,166.729 128.323,166.406 128.551 C 166.018 128.826,165.995 128.919,166.338 128.829 C 166.623 128.753,166.831 128.548,166.800 128.373 C 166.770 128.197,167.064 127.812,167.454 127.516 C 167.845 127.220,168.066 126.972,167.946 126.966 C 167.826 126.959,167.386 127.211,166.969 127.527 M135.893 136.621 C 135.359 137.212,134.755 137.967,134.551 138.300 C 134.347 138.632,134.492 138.563,134.873 138.147 C 135.807 137.126,136.126 137.569,135.581 139.131 C 135.336 139.836,135.300 140.240,135.501 140.030 C 135.841 139.675,137.190 135.547,136.966 135.547 C 136.910 135.547,136.428 136.030,135.893 136.621 M135.009 142.398 C 134.875 142.747,134.793 144.029,134.827 145.247 L 134.889 147.461 135.142 144.727 C 135.414 141.795,135.391 141.402,135.009 142.398 M131.236 143.653 C 130.942 144.243,130.638 144.858,130.562 145.020 C 130.485 145.181,130.570 145.313,130.751 145.313 C 131.081 145.313,132.124 142.932,131.895 142.702 C 131.827 142.635,131.531 143.062,131.236 143.653 M160.790 145.132 C 160.656 145.481,160.562 146.060,160.580 146.419 C 160.599 146.777,160.769 146.552,160.958 145.918 C 161.326 144.685,161.196 144.075,160.790 145.132 M140.631 149.316 C 140.636 150.027,140.709 150.083,141.016 149.609 C 141.505 148.852,141.505 148.438,141.016 148.438 C 140.801 148.438,140.628 148.833,140.631 149.316 M134.772 150.293 C 134.775 150.669,134.926 151.211,135.108 151.498 C 135.326 151.841,135.423 151.609,135.395 150.815 C 135.350 149.571,134.761 149.078,134.772 150.293 M160.574 154.957 C 160.559 155.428,160.723 155.922,160.938 156.055 C 161.400 156.340,161.400 155.958,160.938 154.883 C 160.614 154.130,160.601 154.132,160.574 154.957 M83.984 160.645 C 83.984 160.841,84.204 160.928,84.473 160.837 C 84.741 160.746,85.460 161.347,86.069 162.172 C 86.678 162.997,87.381 163.666,87.631 163.659 C 87.902 163.652,87.843 163.454,87.486 163.171 C 87.156 162.909,86.505 162.153,86.041 161.491 C 85.250 160.364,83.984 159.843,83.984 160.645 M91.406 167.131 C 91.406 167.538,93.345 168.895,93.584 168.656 C 93.670 168.570,93.215 168.111,92.573 167.636 C 91.931 167.162,91.406 166.934,91.406 167.131 M101.563 172.990 C 101.563 173.164,102.205 173.504,102.990 173.744 C 104.553 174.224,104.340 173.853,102.637 173.129 C 102.046 172.878,101.563 172.816,101.563 172.990 M167.669 173.438 C 167.937 173.867,168.292 174.219,168.457 174.219 C 168.622 174.219,168.537 173.867,168.269 173.438 C 168.000 173.008,167.646 172.656,167.481 172.656 C 167.316 172.656,167.400 173.008,167.669 173.438 M86.066 173.991 C 86.210 174.366,86.328 174.835,86.328 175.032 C 86.328 175.229,86.487 175.391,86.682 175.391 C 87.137 175.391,86.755 173.896,86.215 173.563 C 85.957 173.403,85.902 173.562,86.066 173.991 M114.375 177.031 C 114.740 177.396,114.948 177.396,115.313 177.031 C 115.677 176.667,115.573 176.563,114.844 176.563 C 114.115 176.563,114.010 176.667,114.375 177.031 M171.291 178.127 C 171.681 178.558,172.085 178.826,172.189 178.723 C 172.451 178.460,171.477 177.344,170.985 177.344 C 170.764 177.344,170.901 177.696,171.291 178.127 M127.502 179.627 C 127.624 179.825,128.260 180.067,128.914 180.163 C 130.343 180.372,129.947 179.896,128.385 179.527 C 127.739 179.374,127.371 179.416,127.502 179.627 M175.370 182.205 C 176.485 183.391,176.733 183.470,176.196 182.468 C 175.980 182.063,175.495 181.614,175.118 181.470 C 174.607 181.274,174.671 181.461,175.370 182.205 M181.641 186.621 C 181.641 186.786,181.992 187.141,182.422 187.409 C 182.852 187.678,183.203 187.762,183.203 187.597 C 183.203 187.432,182.852 187.078,182.422 186.809 C 181.992 186.541,181.641 186.456,181.641 186.621 M151.563 189.007 C 151.563 189.221,152.090 189.659,152.734 189.981 C 153.379 190.302,153.906 190.503,153.906 190.426 C 153.906 190.350,153.379 189.912,152.734 189.453 C 152.090 188.994,151.563 188.794,151.563 189.007 M191.016 191.471 C 191.016 191.722,191.131 191.811,191.273 191.670 C 191.414 191.529,191.766 191.609,192.054 191.848 C 192.383 192.122,192.578 192.136,192.578 191.886 C 192.578 191.668,192.300 191.383,191.960 191.253 C 191.111 190.927,191.016 190.949,191.016 191.471 M156.670 193.591 C 157.191 194.147,157.969 194.783,158.398 195.003 C 158.828 195.223,158.520 194.768,157.714 193.991 C 156.035 192.372,155.249 192.071,156.670 193.591 M205.609 195.224 C 205.741 195.436,206.303 195.697,206.860 195.803 C 208.053 196.031,207.638 195.525,206.299 195.119 C 205.721 194.944,205.461 194.984,205.609 195.224 M160.352 196.094 C 160.484 196.309,160.378 196.484,160.114 196.484 C 159.851 196.484,159.727 196.576,159.840 196.689 C 160.173 197.022,161.343 196.434,161.108 196.053 C 160.989 195.860,160.716 195.703,160.501 195.703 C 160.286 195.703,160.219 195.879,160.352 196.094 M161.596 197.461 C 161.843 198.178,161.806 198.194,161.142 197.656 C 160.500 197.135,160.441 197.135,160.614 197.656 C 160.720 197.979,161.056 198.242,161.361 198.242 C 161.665 198.242,162.034 198.506,162.180 198.828 C 162.411 199.338,162.449 199.335,162.473 198.805 C 162.488 198.470,162.236 197.855,161.913 197.438 C 161.335 196.691,161.330 196.692,161.596 197.461 M87.704 198.730 C 87.862 199.106,88.077 199.810,88.182 200.293 C 88.287 200.776,88.522 201.172,88.705 201.172 C 88.888 201.172,88.931 200.864,88.800 200.488 C 88.670 200.112,89.471 200.752,90.581 201.911 C 91.690 203.069,92.683 203.932,92.786 203.828 C 92.890 203.725,91.962 202.675,90.726 201.495 C 88.430 199.306,88.281 199.119,88.281 198.438 C 88.281 198.223,88.087 198.047,87.849 198.047 C 87.588 198.047,87.530 198.318,87.704 198.730 M220.313 201.075 C 220.313 201.240,220.664 201.594,221.094 201.862 C 221.523 202.131,221.875 202.215,221.875 202.050 C 221.875 201.885,221.523 201.531,221.094 201.263 C 220.664 200.994,220.313 200.910,220.313 201.075 M222.656 202.627 C 222.656 202.797,223.008 203.157,223.438 203.425 C 223.870 203.695,224.219 203.743,224.219 203.533 C 224.219 203.324,223.867 202.964,223.438 202.734 C 223.008 202.504,222.656 202.456,222.656 202.627 M118.742 206.195 C 119.790 207.039,121.484 207.522,121.484 206.977 C 121.484 206.792,121.221 206.619,120.898 206.592 C 119.996 206.517,119.799 206.455,118.750 205.917 L 117.773 205.416 118.742 206.195 M128.516 211.073 C 129.053 211.356,129.575 211.520,129.676 211.437 C 129.951 211.211,128.798 210.559,128.125 210.559 C 127.802 210.558,127.977 210.789,128.516 211.073 M231.641 211.133 C 231.908 211.455,232.303 211.719,232.518 211.719 C 232.735 211.719,232.693 211.460,232.422 211.133 C 232.154 210.811,231.760 210.547,231.545 210.547 C 231.327 210.547,231.369 210.806,231.641 211.133 M112.310 214.072 C 112.570 214.492,114.063 214.824,114.063 214.462 C 114.063 214.292,113.628 214.071,113.098 213.969 C 112.567 213.868,112.213 213.914,112.310 214.072 M121.304 216.734 C 121.893 217.261,125.082 218.418,124.832 218.013 C 124.709 217.814,123.781 217.369,122.769 217.024 C 121.757 216.680,121.098 216.549,121.304 216.734 M99.211 219.718 C 100.155 220.681,101.009 221.387,101.108 221.288 C 101.348 221.047,98.344 217.970,97.868 217.969 C 97.662 217.969,98.266 218.756,99.211 219.718 M126.595 218.896 C 127.125 219.370,129.296 220.282,129.294 220.030 C 129.291 219.705,127.437 218.750,126.810 218.750 C 126.602 218.750,126.506 218.816,126.595 218.896 M197.461 220.982 C 197.031 221.085,196.504 221.341,196.289 221.550 C 195.796 222.030,198.080 221.532,198.613 221.043 C 199.013 220.677,198.779 220.665,197.461 220.982 M103.125 222.836 C 103.125 223.258,105.191 225.017,105.419 224.789 C 105.518 224.690,105.526 224.565,105.436 224.512 C 105.347 224.458,104.790 223.988,104.199 223.467 C 103.608 222.946,103.125 222.662,103.125 222.836 M191.586 223.636 C 190.950 224.156,190.605 224.582,190.820 224.582 C 191.317 224.584,193.136 223.084,192.911 222.859 C 192.819 222.767,192.222 223.116,191.586 223.636 M208.925 224.023 C 209.336 224.871,210.781 226.274,211.719 226.734 C 212.041 226.892,211.928 226.698,211.467 226.303 C 211.006 225.909,210.160 225.059,209.588 224.414 C 208.971 223.720,208.701 223.561,208.925 224.023 M135.547 224.892 C 135.547 225.383,136.663 226.357,136.926 226.095 C 137.029 225.991,136.762 225.588,136.331 225.197 C 135.900 224.807,135.547 224.670,135.547 224.892 M212.993 229.398 C 213.474 230.335,213.922 230.971,213.989 230.812 C 214.144 230.439,213.017 228.249,212.508 227.934 C 212.294 227.802,212.513 228.461,212.993 229.398 M114.063 229.620 C 114.063 229.807,114.766 230.236,115.625 230.573 C 116.484 230.911,117.188 231.117,117.188 231.031 C 117.188 230.945,116.484 230.517,115.625 230.078 C 114.766 229.640,114.063 229.434,114.063 229.620 M185.807 233.073 C 185.446 233.434,185.480 234.375,185.854 234.375 C 186.023 234.375,186.188 234.023,186.221 233.594 C 186.284 232.754,186.214 232.666,185.807 233.073 M144.903 235.655 C 145.093 237.264,145.101 237.272,145.234 235.985 C 145.308 235.260,145.221 234.517,145.039 234.336 C 144.857 234.154,144.796 234.747,144.903 235.655 M214.481 235.645 C 214.465 236.665,214.629 237.500,214.844 237.500 C 215.313 237.500,215.313 235.662,214.844 234.570 C 214.591 233.982,214.501 234.248,214.481 235.645 M128.918 235.853 C 128.931 236.159,134.033 239.144,134.221 238.956 C 134.285 238.892,133.115 238.105,131.622 237.207 C 130.128 236.308,128.911 235.699,128.918 235.853 M136.719 240.741 C 136.719 240.890,137.535 241.839,138.534 242.852 C 139.532 243.864,140.161 244.349,139.933 243.928 C 139.455 243.049,136.719 240.336,136.719 240.741 M122.266 241.614 C 122.266 242.246,122.876 242.389,123.217 241.838 C 123.336 241.645,123.170 241.387,122.849 241.264 C 122.495 241.128,122.266 241.265,122.266 241.614 M129.297 245.304 C 129.297 245.473,129.648 245.704,130.078 245.816 C 130.508 245.929,130.859 245.882,130.859 245.712 C 130.859 245.542,130.508 245.312,130.078 245.199 C 129.648 245.087,129.297 245.134,129.297 245.304 M210.517 245.996 L 209.570 247.070 210.742 246.094 C 211.387 245.557,211.987 245.073,212.077 245.020 C 212.166 244.966,212.065 244.922,211.852 244.922 C 211.639 244.922,211.038 245.405,210.517 245.996 M125.201 246.204 C 125.578 246.801,125.985 247.192,126.105 247.072 C 126.226 246.952,125.917 246.463,125.419 245.985 L 124.515 245.117 125.201 246.204 M141.895 246.179 C 141.949 246.446,141.394 246.766,140.625 246.909 L 139.258 247.163 140.504 247.214 C 141.190 247.242,141.861 247.087,141.996 246.869 C 142.131 246.650,142.449 246.596,142.703 246.748 C 142.966 246.906,142.933 246.741,142.628 246.364 C 141.994 245.583,141.760 245.524,141.895 246.179 M191.797 247.950 C 191.797 248.115,192.148 248.469,192.578 248.737 C 193.008 249.006,193.359 249.090,193.359 248.925 C 193.359 248.760,193.008 248.406,192.578 248.138 C 192.148 247.869,191.797 247.785,191.797 247.950 M207.513 248.250 C 206.311 248.877,206.008 249.221,206.673 249.206 C 207.279 249.193,208.834 248.137,208.565 247.921 C 208.473 247.848,208.000 247.995,207.513 248.250 M203.789 249.857 C 203.652 249.993,202.173 250.093,200.501 250.078 C 198.365 250.059,197.659 250.163,198.128 250.427 C 198.936 250.881,203.508 250.554,204.060 250.003 C 204.276 249.786,204.359 249.609,204.245 249.609 C 204.130 249.609,203.925 249.721,203.789 249.857 M132.593 255.809 C 133.224 256.481,133.910 257.031,134.118 257.031 C 134.630 257.031,133.210 255.496,132.231 254.991 C 131.670 254.702,131.774 254.936,132.593 255.809 M235.156 260.816 C 235.156 261.036,234.533 262.032,233.771 263.030 C 233.009 264.027,232.526 264.843,232.697 264.843 C 233.179 264.842,235.705 260.966,235.414 260.675 C 235.272 260.533,235.156 260.596,235.156 260.816 M139.844 262.807 C 139.844 263.001,140.221 263.495,140.682 263.904 C 141.514 264.643,141.517 264.642,141.070 263.791 C 140.572 262.842,139.844 262.257,139.844 262.807 M229.987 267.665 C 228.970 268.703,228.442 269.386,228.815 269.183 C 229.656 268.725,232.235 266.073,232.005 265.902 C 231.912 265.834,231.004 266.627,229.987 267.665 M147.627 269.280 C 148.651 270.396,148.828 270.498,148.828 269.967 C 148.828 269.777,148.345 269.312,147.754 268.934 L 146.680 268.247 147.627 269.280 M226.178 271.466 C 225.644 271.877,225.306 272.311,225.427 272.433 C 225.549 272.554,226.060 272.214,226.564 271.678 C 227.653 270.519,227.512 270.441,226.178 271.466 M152.734 272.639 C 152.734 272.848,153.086 273.208,153.516 273.438 C 153.945 273.667,154.297 273.716,154.297 273.545 C 154.297 273.374,153.945 273.015,153.516 272.747 C 153.083 272.477,152.734 272.429,152.734 272.639 M220.898 275.417 C 220.254 275.830,219.902 276.168,220.117 276.167 C 220.332 276.167,221.035 275.817,221.680 275.391 C 222.324 274.964,222.676 274.626,222.461 274.641 C 222.246 274.655,221.543 275.004,220.898 275.417 M214.355 278.933 C 213.550 279.358,212.891 279.793,212.891 279.900 C 212.891 280.007,213.594 279.735,214.453 279.297 C 215.313 278.858,216.016 278.415,216.016 278.312 C 216.016 278.057,216.013 278.058,214.355 278.933 M166.016 279.288 C 166.016 279.458,166.367 279.688,166.797 279.801 C 167.227 279.913,167.578 279.866,167.578 279.696 C 167.578 279.527,167.227 279.296,166.797 279.184 C 166.367 279.071,166.016 279.118,166.016 279.288 M210.719 280.686 C 209.973 281.283,209.973 281.287,210.742 280.934 C 211.172 280.736,211.787 280.477,212.109 280.357 C 212.616 280.169,212.612 280.136,212.086 280.109 C 211.751 280.092,211.136 280.351,210.719 280.686 M204.688 282.313 C 203.141 282.590,202.980 283.063,204.493 282.887 C 205.244 282.799,205.859 282.570,205.859 282.379 C 205.859 282.188,205.815 282.055,205.762 282.084 C 205.708 282.114,205.225 282.216,204.688 282.313 M187.500 284.070 C 187.500 284.424,195.219 284.208,195.583 283.844 C 195.699 283.728,193.927 283.656,191.647 283.683 C 189.366 283.710,187.500 283.884,187.500 284.070 " stroke="none" fill="#6a3897" fill-rule="evenodd"></path></g></svg>